<?xml version="1.0" encoding="UTF-8"?>
<!DOCTYPE svg PUBLIC "-//W3C//DTD SVG 1.1//EN" "http://www.w3.org/Graphics/SVG/1.1/DTD/svg11.dtd">
<!-- Creator: CorelDRAW -->
<svg xmlns="http://www.w3.org/2000/svg" xml:space="preserve" width="297mm" height="210mm" version="1.1" style="shape-rendering:geometricPrecision; text-rendering:geometricPrecision; image-rendering:optimizeQuality; fill-rule:evenodd; clip-rule:evenodd"
viewBox="0 0 29700 21000"
 xmlns:xlink="http://www.w3.org/1999/xlink">
 <defs>
  <style type="text/css">
   <![CDATA[
    .str4 {stroke:black;stroke-width:10;stroke-opacity:0.501961}
    .str3 {stroke:black;stroke-width:50}
    .str2 {stroke:#003399;stroke-width:20}
    .str7 {stroke:#434242;stroke-width:10}
    .str5 {stroke:black;stroke-width:10}
    .str0 {stroke:#000066;stroke-width:10}
    .str1 {stroke:#003399;stroke-width:10}
    .str8 {stroke:#2B2A29;stroke-width:7.62}
    .str6 {stroke:black;stroke-width:7.62}
    .fil2 {fill:none}
    .fil0 {fill:#FEFEFE}
    .fil8 {fill:#D9DADA}
    .fil1 {fill:white}
    .fil6 {fill:#FEFEFE;fill-rule:nonzero}
    .fil5 {fill:#D9DADA;fill-rule:nonzero}
    .fil7 {fill:#434242;fill-rule:nonzero}
    .fil4 {fill:black;fill-rule:nonzero}
    .fil3 {fill:#FEFEFE;fill-rule:nonzero;fill-opacity:0.501961}
   ]]>
  </style>
 </defs>
 <g id="Plan_x0020_1">
  <metadata id="CorelCorpID_0Corel-Layer"/>
  <rect class="fil0" x="1000" y="1000" width="22886" height="19000"/>
  <path class="fil1 str0" d="M23886 18424l0 -17424 -21930 0c37,66 49,89 126,64 38,-13 60,-61 123,-42 43,13 27,-1 68,32 15,12 79,-4 107,-4 121,0 -4,47 -23,46 -33,-2 -120,0 -149,11 -109,42 -57,51 -112,105 -45,43 -76,16 -127,18 -26,1 -153,-94 -242,-91 -95,3 -131,49 -187,119l-3 3c-84,148 -57,187 -95,332 -32,126 -57,163 -48,302 3,41 8,176 57,191 46,13 71,-26 111,-53 5,-4 66,-94 74,-107 37,-59 108,-68 172,-73 108,-7 113,43 93,43 -48,1 -133,-17 -156,43 -27,69 35,64 -31,92 -64,27 23,34 -41,96 -33,32 -47,58 -65,101 -83,63 -45,52 -77,96 -11,14 -31,13 -6,58 28,50 -32,89 -49,140 -25,72 -28,224 92,159 20,-11 90,-43 112,-44 24,-1 38,-4 66,-3 34,1 38,-1 74,6 17,4 199,-37 209,-3 19,62 71,64 63,105 -1,6 -89,33 -100,33 -33,-1 -36,4 -72,-16 -53,-30 -53,39 -72,46 -55,20 -32,-5 -102,37 -36,22 -50,44 -66,85 -23,58 -11,93 56,83 23,-4 121,23 127,51 9,41 -24,70 -41,104l-7 10c-23,58 -38,81 -43,139 -4,48 36,63 -37,122 -4,3 -34,35 -31,43 16,38 28,63 -12,93 -23,17 -11,55 -40,92 -11,13 -55,81 -17,81 74,0 2,47 -1,104 -4,67 42,21 55,22 80,2 -49,93 6,164 22,29 -24,67 11,116 7,9 7,13 12,23 -3,22 -25,159 26,157 43,-2 53,12 72,-53 9,-30 -17,-67 38,-69 13,-1 17,40 36,53 47,32 -67,71 78,71 0,0 58,18 59,20 2,4 -9,44 -38,43 -23,-1 -44,35 -30,63 17,35 9,68 21,107 7,22 47,171 59,176 29,12 97,-23 122,-30 15,18 -86,75 -15,152 20,21 16,75 26,106 20,60 38,44 53,124 7,35 25,36 34,86 9,46 92,41 58,90 -12,16 -26,55 -15,74 17,54 24,97 48,148 17,36 24,64 45,104 16,31 7,126 -6,157 -6,15 8,93 8,122 0,54 -30,95 -75,123 -10,6 -16,31 -38,40 -20,8 -51,57 -51,87 0,79 -6,198 -74,252 -22,17 -72,-23 -48,68 14,51 -42,43 -62,72 -13,20 -36,90 -28,112 11,30 5,73 11,87 -2,38 -10,110 -19,148 -18,73 21,182 -57,225 -48,26 -31,64 -31,115 0,74 15,221 -61,262 -1,1 -22,28 -42,42 -32,22 8,46 18,92 9,42 15,82 -17,119 -17,20 -66,52 -49,94 5,12 55,10 78,93 25,86 6,95 54,185 4,8 8,21 13,30 24,88 18,133 21,219 2,48 89,85 25,120 -33,18 -26,81 -4,104 14,15 -23,59 60,127 22,18 39,40 28,71 -9,24 -79,59 -63,91 23,45 54,41 37,112 -9,37 9,106 37,133 40,37 18,118 119,96 48,-10 46,21 27,30 -86,39 -47,43 -86,120 -33,65 0,63 -2,102 -3,17 -26,95 -1,104 26,9 28,15 20,42 -3,12 -11,23 -16,41 -6,26 -12,97 28,96 33,-1 58,33 62,64 2,18 10,51 10,67 -8,48 12,59 -17,104 -17,27 -34,55 -33,89 1,19 -1,39 2,60 9,48 -51,127 -39,155 2,4 18,-4 26,-5 19,-3 38,-10 47,14 4,11 -21,34 -28,60 -10,41 -19,50 27,45 21,-2 37,-21 44,-40 17,-47 38,-76 49,-129 3,-17 9,-34 13,-54 16,-80 23,-51 90,-41 28,4 72,-23 101,-31 29,-8 75,-48 76,-80 1,-31 7,-31 -9,-63 -5,-11 -5,-20 -2,-31 22,-55 20,-136 57,-177 13,-14 13,29 12,35 -8,65 1,97 12,160 10,56 8,58 30,115 6,15 8,33 12,48 16,11 29,23 34,43 6,25 -21,51 -51,44 -23,-5 -23,29 -87,17 -23,-4 -41,17 -41,39 0,34 -20,20 -3,73 7,22 4,61 -24,62 -18,1 -37,-45 -58,-6 -7,13 -17,17 -17,39 0,20 21,26 27,58 15,77 32,66 100,51 17,-4 50,-25 55,-23 10,3 -6,94 -7,106 -3,30 -6,60 -42,59 -21,-1 -39,-96 -62,-40 -28,68 -62,64 -121,35 -29,-14 -54,-12 -71,19 -9,18 -2,40 -2,59 -1,44 -7,199 -19,244 -7,25 4,68 15,91 25,55 36,53 60,94 8,14 52,103 57,109 11,14 62,136 17,121 -63,-22 -11,50 -42,117 -47,103 25,93 25,214 0,93 48,32 45,80 -2,25 -39,91 14,96 25,2 61,39 70,65 2,7 4,10 6,18 16,52 23,80 78,84 45,4 37,44 91,48 19,2 8,7 42,5 96,-7 60,16 65,53 7,54 -60,43 -95,36 -56,-11 -121,38 -151,-35 -3,-6 -2,-55 -21,-84 -12,-19 -14,-18 -44,-5 -57,26 29,68 -5,115 -4,5 -24,47 -19,49 3,2 107,-4 124,63 6,23 -1,115 -15,138 -14,24 -41,71 -11,92 90,64 -15,175 62,191 84,17 -20,63 47,117 52,43 -5,152 37,172 103,48 4,82 75,117 44,22 54,81 68,126 16,62 37,105 62,161 10,23 60,196 51,213 -11,22 -59,46 -31,106 9,18 29,37 28,68 -3,96 -9,117 74,173 0,0 51,46 24,45 -23,-1 -79,18 -66,59 21,67 70,36 94,177 3,17 15,64 24,76 19,27 64,44 12,88 -11,10 -16,33 -32,51 -32,38 80,38 98,58 3,4 5,7 8,11 -10,66 -17,91 22,141 28,36 26,131 -37,69 -25,-24 -85,27 -35,45 51,19 69,33 76,89 3,21 12,44 13,73 1,23 33,94 38,134 11,91 36,81 62,163 23,75 8,63 13,131 1,23 39,92 -26,80 -26,-5 -62,34 32,56 36,9 40,34 32,66 -6,3 -59,24 -37,46 20,20 51,-7 25,80 -5,17 -8,90 -3,106 22,60 -43,69 22,99 33,15 -27,59 -8,133 18,73 43,27 62,63 10,18 -17,53 -21,85 -16,125 26,128 31,225 3,55 6,73 32,122 -16,97 3,29 33,99 5,12 -4,31 -5,35 -13,-1 -13,1 -28,-10 -29,-20 -67,31 -24,41 36,8 58,45 7,74 -17,10 -25,46 -10,66 20,27 61,191 78,238 14,38 52,146 45,181 -28,139 62,36 58,115 -3,53 -7,56 7,113 11,42 11,57 31,99 22,47 18,69 57,118 26,32 40,61 59,98 4,80 43,238 22,306 -12,37 56,47 67,71 18,37 5,89 32,154 28,66 13,135 95,149 96,17 183,52 179,164 -3,71 107,61 123,193 6,50 19,53 10,112 -12,79 63,48 100,130 7,15 12,28 20,42 13,75 42,101 40,184 -2,62 71,23 71,23 56,2 13,28 -2,49 -41,57 36,105 36,166 0,60 -4,84 35,136 28,37 75,75 120,88 41,12 97,9 112,45 12,30 141,63 94,107 -18,17 -93,1 -123,7 -55,11 -110,-77 -149,-21 -5,7 9,29 14,34l31 44 16516 0c53,-78 114,-124 156,-216 34,-73 49,-85 66,-171 16,-84 13,-141 40,-224 27,-84 112,-178 164,-248 132,-150 113,-159 294,-255 98,-52 211,-96 310,-147 116,-60 496,-125 616,-64 32,16 122,71 108,113 -30,88 11,73 26,150 4,23 18,45 2,72 -24,-3 -31,-5 -45,-24 -14,-20 -24,-94 -50,-111 -34,-22 -6,18 0,35 9,26 20,48 28,75 5,15 23,54 35,65 42,41 47,61 112,57 44,-3 116,-18 163,-26 62,-10 134,-32 189,-65 55,-34 92,-53 60,-126 -13,-31 -27,-32 -15,-72 14,-46 31,-65 54,-105 26,-31 50,-58 76,-88 16,-19 28,-40 46,-61 17,-19 32,-32 48,-52 12,-15 35,-33 51,-43l56 -45z"/>
  <g>
   <path class="fil0" d="M11718 1000c-30,34 -73,65 5,72 37,3 85,-2 43,44 -15,17 -46,76 -5,59 9,-4 24,-3 31,5 21,21 -13,94 49,101 24,3 27,-17 21,-36 -17,-55 10,-79 23,-119 6,-19 44,-25 61,-23 21,3 99,-3 82,35 -11,24 -46,29 -57,104 -5,34 22,45 29,73 8,36 112,35 84,102 -15,36 61,-58 78,-39 35,37 -43,44 -19,120 6,19 9,48 -3,64 -43,60 16,37 -29,88 -38,44 -39,94 25,0 41,-60 64,0 20,36 -46,38 -4,51 -17,95 -3,11 -22,57 -11,56 27,-2 -59,133 3,101 28,-15 53,-56 47,-88 -4,-20 28,-125 61,-124 19,0 171,47 86,-12 -9,-6 -76,-63 -60,-74 11,4 236,-23 70,-39 -7,-1 -81,-17 -44,-32 15,-6 38,-22 31,-41 -2,-4 -3,-77 -3,-78 12,-53 54,60 110,49 78,-15 41,5 120,19 8,1 17,6 24,6 50,14 61,17 71,-27 12,-58 74,-90 -33,-66 -10,2 -111,-36 -96,-51 23,-23 78,-25 107,-91 6,-14 -58,25 -88,25 -88,0 -72,-4 -151,-21 -44,-10 33,-101 -11,-100 -19,1 -67,-29 -91,-39 -43,-18 36,-25 43,-25 72,2 68,-2 132,-22 33,-10 52,24 112,0l-38 -106 -812 0 0 0zm233 0c-19,71 -10,50 35,72 20,10 54,32 66,-10 2,-8 -2,-15 -1,-20l0 -42 -99 0zm4023 2791c-31,-13 -21,-10 -46,-15 -10,-2 -52,-16 -58,-23 -13,-17 12,-22 -30,-46 -12,-7 -36,-25 -14,-36 51,-23 31,-35 54,-78 13,-24 22,-55 52,-63 8,-2 16,2 16,13 0,20 -17,65 -12,88 3,15 0,43 15,58 25,25 34,29 54,61 12,19 69,61 6,59 -3,0 -8,0 -11,-2l-27 -15zm-7337 5028c-54,-11 -55,-11 -89,20 -40,36 -66,82 -102,116 -17,16 -27,4 -17,-23 15,-42 65,-113 34,-162 -15,-25 50,-106 -33,-108 -11,0 -83,-24 -87,-40 -14,-62 73,-107 -8,-118 -23,-3 -84,2 -97,-34 -9,-25 46,-22 18,-67 -28,-46 12,-112 45,-55 52,88 208,-48 181,42 -10,34 53,6 16,66 -40,65 39,27 70,77 11,18 33,55 51,63 61,25 173,-131 226,38 15,46 61,105 18,149 -36,36 -17,91 -63,118 -8,4 -52,4 -57,-5 -10,-17 -23,-91 -61,-88l-43 15zm-1754 298c-7,23 -6,33 -13,54 -5,15 -45,60 -68,36 -27,-27 -16,-49 -51,-21 -14,11 -40,3 -53,-10 -62,-64 -50,25 -112,-4 -8,-4 -37,-18 -43,-18 -7,0 -46,-19 -67,-18 -43,1 -6,10 19,29 34,26 35,16 55,57 18,37 52,-8 93,-8 51,0 20,32 98,20 9,-1 44,-3 41,12 -6,28 -18,49 -13,79 3,19 18,-18 25,-27 12,-17 35,-40 55,-19 12,12 4,71 28,70 12,0 15,-30 10,-45 -11,-31 -24,-36 -6,-66 15,-24 8,-23 6,-46 -2,-30 -4,-34 7,-65 2,-5 0,-4 -1,-8l-11 -4zm-1666 -5939c-64,57 -56,38 -126,18 -99,-29 -70,48 -114,64 -14,5 -7,-20 -43,9 -41,32 -92,-55 -106,58 -12,97 -67,38 -58,111 16,129 -96,22 -124,86 -36,82 -71,16 -77,64 -4,34 -173,21 -116,115 33,55 -23,130 -56,83 -41,-58 -45,6 -95,-8 -53,-15 -77,103 -36,130 33,22 1,53 10,88 9,32 32,-80 72,-1 53,105 80,-75 145,35 20,34 84,23 91,-52 15,-151 61,9 112,-20 40,-22 -78,-67 1,-105 41,-20 34,-30 36,-79 4,-87 -66,29 -108,24 -54,-6 -35,-79 -3,-93 79,-35 14,-85 79,-109 6,-2 81,-6 115,-16 69,-19 53,-47 79,-116 16,-44 -2,-15 37,-50 40,-35 22,-46 83,-60 68,-15 126,-53 196,-65 54,-9 136,-121 34,-121l-28 8zm11145 7087c-20,-68 7,-43 0,-64 -11,-31 -48,-26 -72,-13 -36,19 -21,-60 -73,13 -84,116 -57,-14 -143,61 -31,27 -20,46 -63,12 -34,-26 -80,141 -105,91 -8,-16 6,-103 -48,-34 -29,37 -127,-53 -37,-54 35,-1 138,-47 165,-76 50,-54 34,-44 99,-70 36,-15 81,-80 39,-113 -27,-22 8,-73 -7,-103 -21,-41 -16,-89 22,-23 25,44 92,121 149,86 44,-27 139,-32 157,29 16,56 43,74 91,102 35,20 102,94 93,139 -12,64 -37,101 -98,126 -38,16 -144,57 -180,52 -116,-14 -55,-44 -26,-111 3,-8 9,-14 14,-21l25 -30zm431 8076c-29,-32 -53,-58 -99,-43 -23,7 -51,-40 -57,-60 -8,-24 -25,-31 -27,-35 -10,-16 -42,23 -61,23 -35,1 -20,21 -47,-14 -8,-10 -43,23 -78,15 -42,-10 -46,-29 -93,-25 -41,3 -33,54 -8,81 11,12 28,45 21,65 -13,39 -8,44 -48,69 -46,28 -79,1 -122,-6 -35,-6 -45,-104 -69,-135 -42,-53 -37,-36 -114,-41 -43,-3 -133,-13 -152,-59 -6,-15 76,-86 8,-57 -30,13 -63,-7 -78,-36 -27,-51 -21,-5 -86,-36 -41,-19 -101,-8 -36,30 57,33 34,83 80,98 45,15 71,56 110,69 94,30 -20,155 142,91 30,-12 43,11 42,38 -1,52 69,29 93,80 31,68 51,17 41,116 -4,45 28,42 57,14 100,-94 91,15 179,-27 43,-21 -64,-66 15,-124 64,-46 50,-116 143,-61 18,10 30,39 75,55 61,20 42,10 51,63 5,30 100,-38 106,43 1,17 -9,119 32,106 21,-7 18,-135 83,-45 11,15 19,91 33,68 7,-12 -21,-96 -25,-121 -10,-72 -11,-38 40,-58 30,-11 45,-28 1,-35 -59,-10 -2,-67 -74,-67 -18,0 -41,0 -51,-18l-26 -18zm1965 436c-84,-17 -61,-27 -119,-51 -3,-1 -44,-4 -25,24 36,56 0,134 -20,190 -3,7 -5,32 -12,49 -28,74 -43,93 -45,172 -1,35 -20,81 -12,113 36,6 74,85 131,-62 19,-50 23,-72 63,-111 0,0 68,-108 71,-114 63,-157 143,-137 22,-186 -7,-3 -5,-7 -10,-12l-43 -13zm343 -2161c-25,-90 -12,-45 -64,-45 -28,0 -54,2 -75,25 -10,11 44,9 68,28 29,24 59,25 9,61 -27,20 -54,76 -71,67 -20,-11 -45,-80 -83,12 -3,8 -46,88 -58,53 -14,-42 -19,-62 -29,-106 -5,-22 -25,-16 -26,17 -1,20 -17,54 -44,33 -50,-40 -11,24 -60,41 -19,6 -13,101 35,84 46,-17 88,-48 136,-21 10,6 154,23 16,56 -67,16 -52,130 7,80 36,-31 84,-33 127,-20 30,9 54,-28 27,-73 -43,-71 32,-95 88,-112 36,-11 45,-15 40,-57 -2,-15 -28,-40 -28,-69l-15 -55zm-8841 743c5,-4 64,-41 46,-58 -34,-33 -34,-71 -79,-10 -57,77 -23,-78 -95,1 -65,71 -9,-78 -128,-27 -46,20 1,-90 -84,-23 -11,9 -29,-12 -54,-12 -10,0 -27,-11 -63,-10 -36,1 -39,-49 -101,-58 -8,-1 -68,-35 -96,-43 -16,-4 -119,-47 -126,-9 -5,30 192,92 228,119 46,34 60,15 83,88 22,67 73,34 90,97 9,32 -84,6 -81,56 1,23 50,16 -2,37 -16,6 -45,44 -26,58 29,20 -11,122 20,129 6,2 42,-51 53,-63 20,-20 60,-64 89,-58 39,7 70,-17 86,-51 16,-32 30,-19 55,-41 16,-14 34,1 59,-16 34,-23 114,49 101,-26 -3,-19 -3,-14 1,-31l23 -50zm-3485 717c31,-62 35,-74 104,-76 27,-1 62,11 80,-34 3,-9 14,-97 -29,-63 -52,42 -83,-37 -127,-8 -20,13 -121,31 -56,54 40,14 12,40 -15,52 -13,6 -40,28 -38,42 3,24 -72,127 -4,79 18,-13 48,-23 69,-31l17 -15zm1409 769c-15,-26 -30,-59 -61,-29 -13,13 -23,42 -52,41 -21,-1 -31,-84 -55,-30 -9,21 -29,35 -37,4 -11,-43 -33,-51 -71,-27 -25,16 -49,63 -83,64 -28,0 -53,31 -67,52 -24,36 -105,26 -123,61 -11,22 56,-9 61,-12 42,-27 89,-46 136,-62 49,-17 101,-96 119,-13 6,29 10,52 31,20 10,-15 34,-29 52,-19 31,17 22,14 49,-8 25,-20 45,2 70,10 14,5 35,18 38,19 13,3 38,-22 21,-45l-26 -24zm6920 -5730c-28,-48 -26,-39 14,-25 37,13 21,9 60,12 91,8 28,100 183,98 87,-1 -26,86 101,110 23,4 84,14 89,40 9,48 -17,53 14,90 22,26 -22,147 -96,128 -44,-11 27,-181 -61,-177 -26,1 -120,-15 -85,-57 28,-34 27,-40 -2,-79 -36,-48 -55,-24 -87,-71 -19,-27 -48,-17 -81,-41l-48 -26zm501 -650c-40,-3 -76,-6 -84,-48 -5,-24 32,-195 84,-173 23,10 1,86 62,96 12,2 71,64 55,84 -17,21 -42,39 -68,45l-50 -3z"/>
   <path id="1" class="fil2 str1" d="M11718 1000c-30,34 -73,65 5,72 37,3 85,-2 43,44 -15,17 -46,76 -5,59 9,-4 24,-3 31,5 21,21 -13,94 49,101 24,3 27,-17 21,-36 -17,-55 10,-79 23,-119 6,-19 44,-25 61,-23 21,3 99,-3 82,35 -11,24 -46,29 -57,104 -5,34 22,45 29,73 8,36 112,35 84,102 -15,36 61,-58 78,-39 35,37 -43,44 -19,120 6,19 9,48 -3,64 -43,60 16,37 -29,88 -38,44 -39,94 25,0 41,-60 64,0 20,36 -46,38 -4,51 -17,95 -3,11 -22,57 -11,56 27,-2 -59,133 3,101 28,-15 53,-56 47,-88 -4,-20 28,-125 61,-124 19,0 171,47 86,-12 -9,-6 -76,-63 -60,-74 11,4 236,-23 70,-39 -7,-1 -81,-17 -44,-32 15,-6 38,-22 31,-41 -2,-4 -3,-77 -3,-78 12,-53 54,60 110,49 78,-15 41,5 120,19 8,1 17,6 24,6 50,14 61,17 71,-27 12,-58 74,-90 -33,-66 -10,2 -111,-36 -96,-51 23,-23 78,-25 107,-91 6,-14 -58,25 -88,25 -88,0 -72,-4 -151,-21 -44,-10 33,-101 -11,-100 -19,1 -67,-29 -91,-39 -43,-18 36,-25 43,-25 72,2 68,-2 132,-22 33,-10 52,24 112,0l-38 -106 -812 0m233 0c-19,71 -10,50 35,72 20,10 54,32 66,-10 2,-8 -2,-15 -1,-20l0 -42 -99 0zm4023 2791c-31,-13 -21,-10 -46,-15 -10,-2 -52,-16 -58,-23 -13,-17 12,-22 -30,-46 -12,-7 -36,-25 -14,-36 51,-23 31,-35 54,-78 13,-24 22,-55 52,-63 8,-2 16,2 16,13 0,20 -17,65 -12,88 3,15 0,43 15,58 25,25 34,29 54,61 12,19 69,61 6,59 -3,0 -8,0 -11,-2l-27 -15zm-7337 5028c-54,-11 -55,-11 -89,20 -40,36 -66,82 -102,116 -17,16 -27,4 -17,-23 15,-42 65,-113 34,-162 -15,-25 50,-106 -33,-108 -11,0 -83,-24 -87,-40 -14,-62 73,-107 -8,-118 -23,-3 -84,2 -97,-34 -9,-25 46,-22 18,-67 -28,-46 12,-112 45,-55 52,88 208,-48 181,42 -10,34 53,6 16,66 -40,65 39,27 70,77 11,18 33,55 51,63 61,25 173,-131 226,38 15,46 61,105 18,149 -36,36 -17,91 -63,118 -8,4 -52,4 -57,-5 -10,-17 -23,-91 -61,-88l-43 15zm-1754 298c-7,23 -6,33 -13,54 -5,15 -45,60 -68,36 -27,-27 -16,-49 -51,-21 -14,11 -40,3 -53,-10 -62,-64 -50,25 -112,-4 -8,-4 -37,-18 -43,-18 -7,0 -46,-19 -67,-18 -43,1 -6,10 19,29 34,26 35,16 55,57 18,37 52,-8 93,-8 51,0 20,32 98,20 9,-1 44,-3 41,12 -6,28 -18,49 -13,79 3,19 18,-18 25,-27 12,-17 35,-40 55,-19 12,12 4,71 28,70 12,0 15,-30 10,-45 -11,-31 -24,-36 -6,-66 15,-24 8,-23 6,-46 -2,-30 -4,-34 7,-65 2,-5 0,-4 -1,-8l-11 -4zm-1666 -5939c-64,57 -56,38 -126,18 -99,-29 -70,48 -114,64 -14,5 -7,-20 -43,9 -41,32 -92,-55 -106,58 -12,97 -67,38 -58,111 16,129 -96,22 -124,86 -36,82 -71,16 -77,64 -4,34 -173,21 -116,115 33,55 -23,130 -56,83 -41,-58 -45,6 -95,-8 -53,-15 -77,103 -36,130 33,22 1,53 10,88 9,32 32,-80 72,-1 53,105 80,-75 145,35 20,34 84,23 91,-52 15,-151 61,9 112,-20 40,-22 -78,-67 1,-105 41,-20 34,-30 36,-79 4,-87 -66,29 -108,24 -54,-6 -35,-79 -3,-93 79,-35 14,-85 79,-109 6,-2 81,-6 115,-16 69,-19 53,-47 79,-116 16,-44 -2,-15 37,-50 40,-35 22,-46 83,-60 68,-15 126,-53 196,-65 54,-9 136,-121 34,-121l-28 8zm11145 7087c-20,-68 7,-43 0,-64 -11,-31 -48,-26 -72,-13 -36,19 -21,-60 -73,13 -84,116 -57,-14 -143,61 -31,27 -20,46 -63,12 -34,-26 -80,141 -105,91 -8,-16 6,-103 -48,-34 -29,37 -127,-53 -37,-54 35,-1 138,-47 165,-76 50,-54 34,-44 99,-70 36,-15 81,-80 39,-113 -27,-22 8,-73 -7,-103 -21,-41 -16,-89 22,-23 25,44 92,121 149,86 44,-27 139,-32 157,29 16,56 43,74 91,102 35,20 102,94 93,139 -12,64 -37,101 -98,126 -38,16 -144,57 -180,52 -116,-14 -55,-44 -26,-111 3,-8 9,-14 14,-21l25 -30zm431 8076c-29,-32 -53,-58 -99,-43 -23,7 -51,-40 -57,-60 -8,-24 -25,-31 -27,-35 -10,-16 -42,23 -61,23 -35,1 -20,21 -47,-14 -8,-10 -43,23 -78,15 -42,-10 -46,-29 -93,-25 -41,3 -33,54 -8,81 11,12 28,45 21,65 -13,39 -8,44 -48,69 -46,28 -79,1 -122,-6 -35,-6 -45,-104 -69,-135 -42,-53 -37,-36 -114,-41 -43,-3 -133,-13 -152,-59 -6,-15 76,-86 8,-57 -30,13 -63,-7 -78,-36 -27,-51 -21,-5 -86,-36 -41,-19 -101,-8 -36,30 57,33 34,83 80,98 45,15 71,56 110,69 94,30 -20,155 142,91 30,-12 43,11 42,38 -1,52 69,29 93,80 31,68 51,17 41,116 -4,45 28,42 57,14 100,-94 91,15 179,-27 43,-21 -64,-66 15,-124 64,-46 50,-116 143,-61 18,10 30,39 75,55 61,20 42,10 51,63 5,30 100,-38 106,43 1,17 -9,119 32,106 21,-7 18,-135 83,-45 11,15 19,91 33,68 7,-12 -21,-96 -25,-121 -10,-72 -11,-38 40,-58 30,-11 45,-28 1,-35 -59,-10 -2,-67 -74,-67 -18,0 -41,0 -51,-18l-26 -18zm1965 436c-84,-17 -61,-27 -119,-51 -3,-1 -44,-4 -25,24 36,56 0,134 -20,190 -3,7 -5,32 -12,49 -28,74 -43,93 -45,172 -1,35 -20,81 -12,113 36,6 74,85 131,-62 19,-50 23,-72 63,-111 0,0 68,-108 71,-114 63,-157 143,-137 22,-186 -7,-3 -5,-7 -10,-12l-43 -13zm343 -2161c-25,-90 -12,-45 -64,-45 -28,0 -54,2 -75,25 -10,11 44,9 68,28 29,24 59,25 9,61 -27,20 -54,76 -71,67 -20,-11 -45,-80 -83,12 -3,8 -46,88 -58,53 -14,-42 -19,-62 -29,-106 -5,-22 -25,-16 -26,17 -1,20 -17,54 -44,33 -50,-40 -11,24 -60,41 -19,6 -13,101 35,84 46,-17 88,-48 136,-21 10,6 154,23 16,56 -67,16 -52,130 7,80 36,-31 84,-33 127,-20 30,9 54,-28 27,-73 -43,-71 32,-95 88,-112 36,-11 45,-15 40,-57 -2,-15 -28,-40 -28,-69l-15 -55zm-8841 743c5,-4 64,-41 46,-58 -34,-33 -34,-71 -79,-10 -57,77 -23,-78 -95,1 -65,71 -9,-78 -128,-27 -46,20 1,-90 -84,-23 -11,9 -29,-12 -54,-12 -10,0 -27,-11 -63,-10 -36,1 -39,-49 -101,-58 -8,-1 -68,-35 -96,-43 -16,-4 -119,-47 -126,-9 -5,30 192,92 228,119 46,34 60,15 83,88 22,67 73,34 90,97 9,32 -84,6 -81,56 1,23 50,16 -2,37 -16,6 -45,44 -26,58 29,20 -11,122 20,129 6,2 42,-51 53,-63 20,-20 60,-64 89,-58 39,7 70,-17 86,-51 16,-32 30,-19 55,-41 16,-14 34,1 59,-16 34,-23 114,49 101,-26 -3,-19 -3,-14 1,-31l23 -50zm-3485 717c31,-62 35,-74 104,-76 27,-1 62,11 80,-34 3,-9 14,-97 -29,-63 -52,42 -83,-37 -127,-8 -20,13 -121,31 -56,54 40,14 12,40 -15,52 -13,6 -40,28 -38,42 3,24 -72,127 -4,79 18,-13 48,-23 69,-31l17 -15zm1409 769c-15,-26 -30,-59 -61,-29 -13,13 -23,42 -52,41 -21,-1 -31,-84 -55,-30 -9,21 -29,35 -37,4 -11,-43 -33,-51 -71,-27 -25,16 -49,63 -83,64 -28,0 -53,31 -67,52 -24,36 -105,26 -123,61 -11,22 56,-9 61,-12 42,-27 89,-46 136,-62 49,-17 101,-96 119,-13 6,29 10,52 31,20 10,-15 34,-29 52,-19 31,17 22,14 49,-8 25,-20 45,2 70,10 14,5 35,18 38,19 13,3 38,-22 21,-45l-26 -24zm6920 -5730c-28,-48 -26,-39 14,-25 37,13 21,9 60,12 91,8 28,100 183,98 87,-1 -26,86 101,110 23,4 84,14 89,40 9,48 -17,53 14,90 22,26 -22,147 -96,128 -44,-11 27,-181 -61,-177 -26,1 -120,-15 -85,-57 28,-34 27,-40 -2,-79 -36,-48 -55,-24 -87,-71 -19,-27 -48,-17 -81,-41l-48 -26zm501 -650c-40,-3 -76,-6 -84,-48 -5,-24 32,-195 84,-173 23,10 1,86 62,96 12,2 71,64 55,84 -17,21 -42,39 -68,45l-50 -3z"/>
  </g>
  <g>
   <path class="fil2 str2" d="M2077 2705c95,-24 70,-1 146,2 85,4 71,-21 118,-25 35,-3 41,-10 87,-10 94,0 123,-1 210,-42 24,-11 162,-69 181,-74 25,-6 161,-64 179,-78 63,-48 87,-134 50,-205 -11,-21 -34,-129 5,-131 62,-2 70,15 121,47 39,24 76,56 129,21 28,-19 3,-86 -4,-114 -11,-45 -37,-48 -28,-125 4,-35 60,-58 79,-36 27,32 64,39 73,63"/>
   <path class="fil2 str2" d="M3418 1977c34,37 54,67 96,93 36,22 62,-6 64,-45 3,-58 59,-104 107,-58 60,57 129,-13 145,-73 18,-66 19,-97 88,-92 24,2 33,46 100,27 167,-46 95,48 157,67 61,19 23,113 141,144 65,17 124,46 164,101 34,45 82,25 142,79 49,45 100,23 143,3 80,-37 74,-37 143,-58 48,-15 68,-12 119,-35 25,-11 127,-31 147,-43 69,-43 131,-54 199,-108 23,-18 108,-65 137,-80 61,-32 117,-42 181,-8 30,16 27,31 62,46 96,39 101,12 191,-1 58,-9 118,16 124,-68 1,-17 14,-55 40,-40 76,46 125,-75 176,-110 75,-53 88,-28 161,-61 41,-18 205,-69 240,-34 32,31 30,46 92,46 50,0 126,-38 182,-26 45,10 191,-53 244,-68 3,-1 7,-2 10,-3 59,-29 122,-69 180,-17 46,42 127,-14 177,-24 68,-13 135,-24 204,-26 85,-2 193,-24 278,-35 103,-14 170,-19 273,-19 92,0 99,1 184,-35 42,-18 63,-28 106,-21 41,6 96,-29 142,-38 3,-1 7,-1 10,-2 81,-22 80,-21 150,0 37,11 130,-31 170,-33 24,-1 42,-10 80,-10 42,0 185,-22 218,-41 47,-27 140,-9 190,0 23,4 40,-4 81,5 140,31 126,33 255,-21 76,-32 101,12 184,-9 50,-12 200,-41 245,-30 49,12 110,15 144,-27 38,-47 120,-79 180,-78 9,0 56,-22 66,-27 67,-27 136,-53 203,-80"/>
   <path class="fil2 str2" d="M1867 4217c43,-18 61,-20 78,-59 9,-22 62,3 94,-48 21,-33 21,-66 57,-50 12,5 66,9 77,1 23,-19 2,-64 2,-101 0,-62 3,-87 64,-58 132,62 100,-16 130,-37 16,-11 48,-19 64,-35 24,-24 30,-99 81,-72 39,21 64,-30 78,-48 35,-46 43,-16 84,-17 5,0 59,19 82,21 41,4 88,19 134,18 79,-1 93,40 127,103 1,3 3,6 6,7 88,62 158,108 257,40 31,-21 113,-38 146,-13 41,31 91,21 121,-22 35,-50 74,-79 135,-58 89,32 167,-43 245,-1 10,5 91,1 123,10 23,6 74,13 93,18 35,9 71,10 106,16"/>
   <path class="fil2 str2" d="M5290 3187c61,-21 159,-49 225,-47 79,2 134,-77 175,-51 72,45 149,-56 178,0 36,70 174,-22 238,-2 59,18 71,51 120,80 31,18 65,58 73,94 10,42 43,69 87,54 117,-41 96,61 159,38 75,-27 102,-39 163,7 70,53 58,43 124,33 58,-9 20,-14 66,10 11,6 94,-6 136,6 41,12 57,3 81,49 20,37 103,24 145,51 22,14 46,12 56,53 8,32 38,37 50,66 15,37 7,57 42,76 39,22 103,18 164,49 41,22 40,46 109,58 38,7 88,22 89,66 1,27 11,57 40,61 77,12 54,78 104,76 16,-1 27,3 53,2 88,-6 69,39 146,40 66,1 67,31 138,2 62,-25 84,-27 135,18 14,12 38,20 58,38 21,19 47,9 74,5 45,-7 28,-16 66,5 25,14 52,14 80,14 117,-4 89,-22 168,-71 73,-45 55,14 137,7 30,-3 76,-2 107,-3 34,-1 19,46 112,51 64,4 86,33 141,58 95,43 66,36 166,19 60,-10 59,68 125,53 19,-4 51,-3 63,14 6,8 10,12 20,15 62,20 87,32 142,53 29,11 72,11 111,24 79,26 163,21 244,9 44,-7 183,11 202,-38 28,-76 111,-40 178,-89 44,-32 102,-52 94,-112 -13,-93 102,-12 106,-111 3,-77 65,-6 90,-33 6,-7 -16,-14 16,-59 26,-36 42,-88 91,-92 8,-1 31,-4 38,-6 81,-20 63,-34 106,-81 10,-11 23,-45 48,-69 33,-32 53,-51 91,-79 37,-28 89,-173 162,-192 67,-18 61,-4 130,-40 48,-25 141,-50 196,-42 42,6 103,15 144,7 154,-28 122,101 278,-22 52,-41 84,-72 149,-61 40,7 83,-8 94,-52 21,-84 180,-89 155,-166 -13,-40 -21,-99 16,-124 71,-47 44,-5 84,-15 51,-13 35,-65 135,-40 40,10 99,-10 131,-36 48,-37 75,-44 117,-71 6,-4 54,-59 78,-77 40,-31 85,-55 121,-90 35,-34 78,-46 123,-32 68,21 125,-21 192,-25 25,-2 5,-10 35,3 31,13 79,-25 93,-56 14,-32 57,-52 91,-53 24,0 90,-76 95,-99 11,-53 105,-70 122,-48 22,29 65,18 95,26 146,42 81,22 207,0 27,-5 87,-11 114,-9 49,5 39,3 87,17 66,20 152,-7 219,-17 36,-6 167,-8 200,1 13,3 89,7 104,4 68,-14 157,-47 190,37 15,38 -23,70 -6,125 2,7 0,11 4,17 38,64 43,37 94,51 43,12 193,-47 257,-4 54,36 29,55 74,108 27,31 90,9 128,9 98,0 78,47 173,-8 85,-50 242,18 346,-89"/>
   <path class="fil2 str2" d="M3975 7502c21,-32 32,-69 64,-90 18,-12 22,16 77,-39 55,-55 30,-8 102,-23 62,-13 57,-4 106,-54 46,-46 57,-36 112,-24 15,3 29,42 104,25 21,-5 89,-3 108,16 29,30 107,5 155,5 30,0 102,13 119,38 13,18 47,34 71,23 18,-8 98,27 126,29 25,2 41,19 74,-11 21,-18 41,-29 57,-43 54,-51 58,-66 98,-117 19,-24 66,-52 91,-24 15,18 14,21 33,36 13,10 41,-9 82,6 74,26 32,22 78,66 16,15 80,-8 137,35 29,22 24,14 53,43 49,51 94,9 150,51 16,12 41,4 83,35 47,34 77,26 129,52 44,22 125,-15 164,41 14,20 -7,28 26,70 46,59 50,57 114,51 50,-5 83,-77 130,-7 30,45 4,41 69,68 37,15 63,76 87,105 46,56 71,108 159,69 63,-28 105,85 184,52 50,-21 106,24 142,55 36,31 58,0 95,90 22,53 38,10 61,94 12,44 66,90 117,71 68,-25 24,48 122,20 56,-16 134,1 184,26 61,31 56,40 133,51 5,1 11,0 16,1 80,14 43,15 86,28 13,4 19,3 48,14 39,14 81,9 122,13"/>
   <path class="fil2 str2" d="M8876 8759c32,82 13,76 78,74 22,-1 63,26 61,57 -2,31 21,96 69,56 13,-11 95,-53 107,-36 43,62 27,65 107,79 42,7 19,84 121,63 38,-8 143,15 177,38 44,28 93,19 142,21 34,1 98,13 123,3 52,-21 -10,-110 66,-108 46,1 57,72 163,49 35,-8 47,8 109,-7 184,-46 46,53 73,167 11,46 14,54 61,69 21,7 75,-12 97,-25 43,-25 66,-50 100,-82 62,-59 28,67 63,109 16,18 91,51 112,41 29,-13 61,-115 69,-48 6,46 116,-48 119,18 3,68 136,-26 157,58 24,95 80,76 150,31 38,-24 53,-44 89,-3 22,25 53,7 99,20 38,11 60,5 54,61 -4,39 -26,32 -10,100 12,53 -3,117 -41,155 -49,50 -28,154 51,75 20,-20 49,-56 79,-40 1,1 2,1 3,2 0,0 49,62 53,65 22,13 69,-16 76,72 2,26 18,61 52,51 81,-23 36,-110 160,-115 16,-1 -6,21 76,-8 39,-14 98,-17 117,28 9,21 5,31 41,25 51,-8 47,14 59,65 7,30 -24,124 46,156 52,24 84,51 127,-18 22,-36 97,-89 108,-6 11,85 48,91 117,48 56,-35 -22,-118 35,-159 24,-17 84,78 107,42 14,-21 -61,-115 66,-88 69,14 49,16 95,38 49,24 85,-16 124,-41 41,-26 -4,-34 85,-61 19,-6 11,41 71,-9 16,-13 43,-25 60,-12 35,28 94,24 92,-26 -1,-36 82,-82 102,-25 11,30 27,10 -22,60 -18,19 -47,46 -8,65 34,17 63,-52 91,-26 37,35 93,12 95,-31 0,-2 15,-39 22,-44 1,-1 1,-3 3,-3 4,-1 132,8 143,5 91,-20 119,-31 196,-82 100,-66 59,-6 139,-7 20,0 121,-1 108,34 -21,55 -59,78 16,130 17,12 52,51 61,70 16,38 84,29 119,85 28,44 144,39 201,72 45,26 95,44 95,104 0,38 23,80 65,80 40,-1 57,1 84,31 59,66 13,49 84,61 73,13 13,83 163,78 26,-1 90,7 99,35 13,39 77,10 119,24 54,18 61,3 91,62 3,5 3,13 8,14 94,25 46,3 110,-4 59,-7 54,30 113,-3 26,-14 -18,-59 36,-89 46,-26 82,-45 136,-33 9,2 34,-2 38,-10 20,-37 32,-78 48,-117"/>
   <path class="fil2 str2" d="M15367 10594c-44,75 -40,46 -79,98 -4,6 -49,114 -52,122 -7,22 -50,139 -79,122 -24,-14 -33,-46 -73,9 -25,34 -46,69 -35,110 5,18 2,35 13,56 4,7 32,143 32,155 -1,25 4,57 0,86 -8,49 1,204 37,235 80,67 20,146 98,157 39,6 78,62 95,95 2,3 3,6 5,8"/>
   <path class="fil2 str2" d="M15325 11838c48,34 43,29 55,74 13,45 -12,79 44,123 12,10 52,53 59,68 8,19 23,20 31,54 4,18 14,25 3,52 -10,24 -23,32 -7,51 11,13 25,23 38,35"/>
   <path class="fil2 str2" d="M16606 10182c52,-28 85,-58 135,-83 23,-11 62,10 73,35 14,31 72,84 107,79 50,-8 91,-82 140,-1 31,51 102,58 125,-11 13,-39 63,-116 107,-82 62,47 139,29 174,-39 56,-106 168,-7 213,-16 71,-14 67,-86 124,-69 47,15 89,-74 136,-73 87,1 129,154 212,29 34,-51 69,-52 128,-54 70,-2 196,-4 232,73 11,24 20,34 31,64 15,41 47,133 72,164 11,13 58,104 70,125 12,21 62,88 81,102 51,37 46,38 112,40 24,1 106,33 125,52 28,30 78,42 113,66 43,29 127,43 170,4 60,-55 66,-117 177,-76 1,0 100,50 100,51 13,11 25,22 33,34 64,102 33,86 151,106 47,8 115,67 143,106 19,26 84,87 113,100 60,27 95,88 182,77 63,-8 115,-21 180,-28 29,-3 162,-30 127,-79 -53,-74 55,-108 41,-143 -6,-16 6,-48 -4,-96 -6,-30 -46,-139 -3,-147 8,-1 77,38 88,53 69,91 55,31 116,45 37,9 81,95 139,127 49,27 45,6 98,13 66,10 54,81 78,101 6,5 21,9 28,12 73,24 52,14 90,52 86,86 109,33 222,42 71,5 108,1 174,-29 23,-11 61,-34 95,-40 26,-5 49,1 60,31 20,57 10,79 56,134 48,58 19,210 127,184 47,-11 56,19 60,54 3,29 -54,57 -31,154 10,42 -12,32 21,81 78,117 97,38 160,107 47,52 53,130 31,193 -14,41 23,116 47,146 24,30 15,9 42,54 46,79 91,111 173,147 29,12 92,50 122,67 45,25 102,81 137,118 44,47 69,76 114,109 20,15 32,39 63,60 94,63 75,177 103,222 63,101 140,75 221,134 74,55 63,58 93,140 29,80 29,144 6,225 -11,41 -7,110 -15,129 -20,47 -40,79 -5,137 44,73 55,70 40,161 -8,48 -35,93 -13,152 28,76 164,25 217,12 212,-51 52,210 203,124 36,-21 85,-49 126,-40 26,6 50,15 75,23"/>
   <path class="fil2 str2" d="M8980 10609c40,24 60,36 63,86 6,93 -14,58 87,101 71,31 50,45 63,52 18,10 51,-78 116,-25 35,28 -21,91 58,91 26,0 70,23 86,48 5,8 109,99 119,104 49,24 36,-45 74,-68 44,-27 77,-24 126,-18 34,4 44,53 111,20 56,-27 10,49 102,28 44,-10 53,-1 95,3 80,8 71,11 133,24 62,13 165,-6 145,84 -5,24 4,53 39,35 20,-10 118,-60 81,3 -13,21 -37,67 14,58 43,-8 47,-52 96,-21 75,47 32,82 160,46 41,-11 130,-24 148,27 29,81 96,-41 193,-11 14,4 -5,13 31,15 62,4 150,-33 183,-15 22,12 -10,15 62,34 93,23 41,74 173,43 51,-12 85,-17 116,25 13,17 29,25 42,41 53,66 58,91 130,130 65,36 123,-28 207,32 22,16 84,20 112,15 43,-7 94,4 108,49 21,63 -28,76 24,152 38,56 0,94 29,164 11,25 15,41 29,69 66,141 95,32 192,62 47,14 34,50 111,76 57,20 72,70 139,29 59,-37 114,-30 85,39 -15,37 7,130 52,154 32,17 4,46 -3,79 -17,90 49,14 67,108 10,55 -57,135 64,138 56,1 50,-45 133,-45 63,0 122,3 124,-79 1,-63 -102,-39 -78,-122 20,-68 78,-12 137,-26 64,-15 44,-12 23,-85 -17,-57 95,-79 107,-62 39,56 -21,92 56,111 78,18 26,16 60,50 24,24 77,-89 119,-33 29,39 11,50 83,32 38,-10 86,62 114,64 29,2 98,12 118,33 43,47 132,-46 106,91 -10,53 4,89 52,38 33,-35 69,-56 87,1 15,48 41,81 94,86 60,6 77,-97 125,-28 25,35 60,-15 111,32 68,63 55,30 124,57 41,16 23,29 56,53 56,40 -96,140 53,115 34,-6 116,-7 136,25 3,4 18,19 23,22"/>
   <path class="fil2 str2" d="M14994 13036c30,15 61,31 91,46"/>
   <path class="fil2 str2" d="M15547 13528c18,38 20,49 32,80 20,52 88,1 157,69 20,19 68,78 93,79 109,6 62,26 149,54 40,13 42,20 86,24 13,1 76,-10 72,-41 -4,-29 -42,1 -19,-75 3,-9 -1,-66 -19,-75 -57,-28 -91,-43 -74,-120 11,-49 -19,-63 6,-123 8,-20 -26,-35 -39,-56 -33,-56 10,-91 -28,-116 -14,-9 -40,-37 -40,-57 0,-33 41,-52 -10,-66 -33,-9 -39,-72 -8,-100 8,-7 16,-14 23,-22 54,-67 50,-26 106,-21 38,3 89,-23 110,-54 27,-39 155,-32 131,-141 -6,-29 8,-82 -38,-101 -51,-22 -40,-21 -103,1 -111,39 -78,-80 -120,-42 -27,24 -91,31 -115,0 -6,-8 -49,-40 -59,-43 -43,-12 -71,-22 -117,-21 -15,0 -72,-10 -83,-22 -18,-20 -24,-48 -36,-73"/>
   <path class="fil2 str2" d="M10393 5863c142,66 100,52 255,35 73,-8 148,28 228,17 96,-14 116,67 166,80 93,24 132,51 191,124 20,24 24,26 45,56 36,52 48,62 94,103 53,47 27,61 120,64 38,1 83,19 103,54 30,53 75,106 119,149 2,2 5,5 7,7 71,81 87,89 183,124 29,10 60,43 60,74 0,41 -18,84 15,119 18,19 -6,93 28,147 32,51 7,47 82,58 2,0 4,1 5,1 54,23 75,42 131,54 35,8 38,32 113,42 38,5 48,8 88,7 31,-1 70,23 124,2 41,-16 152,-72 188,-38 33,30 94,43 137,41 48,-1 88,25 126,51 20,13 50,24 72,43 10,9 17,12 33,27 70,70 59,-37 138,36 24,22 -2,25 62,58 45,23 -1,126 98,105 6,-1 7,-2 12,-5 62,-31 60,-38 104,-67 11,-7 130,-53 141,-52 16,1 37,22 26,48 -40,101 2,-2 33,113 11,41 31,73 79,66 33,-5 56,-77 73,-10 15,57 31,10 80,48 31,24 3,26 51,59 12,8 47,36 43,51 -9,31 -51,87 33,67 57,-13 69,32 40,68 -46,57 77,54 32,87 -49,35 -76,142 28,103 34,-13 94,7 83,51 -4,15 -5,27 10,38 82,65 135,57 220,82 41,12 49,3 80,36 26,28 173,4 180,83 6,59 20,66 34,118 6,20 2,64 33,82 56,33 82,-7 107,52 19,44 77,1 124,51 20,21 -2,73 -26,92 -29,22 -93,86 -63,125 7,10 79,16 98,9 49,-20 63,-3 83,-10 21,-7 71,-86 106,-30 29,47 90,24 66,-6 -15,-18 -55,-61 -25,-87 17,-15 55,31 78,-55 7,-25 29,-54 50,-17 49,86 80,-56 126,-12 20,19 -3,48 77,37 127,-17 58,83 99,130 19,22 50,1 53,-37 5,-56 76,-53 82,-11 9,57 72,17 118,-1 74,-29 91,-34 98,-101 5,-48 -4,-31 -22,-66 -8,-15 42,-41 65,-41 24,0 106,-23 107,-58 1,-21 7,-129 4,-139 -15,-51 -33,-59 -66,-99 -43,-52 -166,32 -192,32 -49,0 -17,-54 -54,-43 -76,21 23,-142 -106,-87 -33,14 -131,82 -134,5 -2,-45 -75,-82 -104,-114 -54,-59 -120,14 -142,-26 -17,-31 -90,-1 -69,-65 10,-32 32,-24 14,-76 -9,-26 10,-110 27,-125 50,-43 77,-120 123,-161 28,-25 58,-6 89,-18 32,-12 75,-5 126,-25 36,-14 44,-22 73,-35 75,-35 69,73 162,72 53,-1 46,13 106,-20 35,-19 43,-36 77,-15 142,88 281,-162 241,23 -13,61 10,99 60,24 32,-48 72,-96 137,-76 44,13 -4,92 82,91 79,-1 57,100 97,139 92,91 157,-7 222,92 37,56 79,2 104,-27 23,-26 63,-36 97,-32 81,10 102,18 171,48 34,15 149,23 171,35 58,32 31,29 55,48 27,22 40,-30 98,-17 41,9 25,-6 66,25 34,25 54,-7 97,35 49,49 108,-53 155,-10 39,36 28,65 114,48 126,-25 52,-82 143,-153 20,-16 48,6 87,6 66,0 62,-4 110,-39 21,-16 90,-20 156,-77 74,-65 91,-79 142,-154 15,-22 36,-31 56,-10 52,58 139,-5 183,22 41,25 71,17 126,50 68,41 114,6 167,110 30,60 82,51 141,84 42,23 169,70 193,101 29,38 -21,107 -10,189 7,51 -70,89 -10,120 38,20 49,138 50,178 1,23 -44,123 -8,143 44,26 46,-26 114,-26 20,0 39,94 60,106 32,19 89,-31 102,-65 43,-113 48,-84 143,-115 14,-5 70,-2 98,-17 36,-19 59,-33 94,-54 56,-33 119,8 164,39 3,2 8,7 15,13 32,30 100,99 106,111 33,65 79,91 147,108 54,14 41,52 90,86 95,67 61,72 109,157 42,76 -48,186 -5,281 12,27 -30,50 -45,73 -18,27 -44,68 -51,100 -23,113 25,159 18,253 -2,22 -111,71 -133,82 -55,29 -70,86 -73,143 -5,95 6,167 117,115 34,-16 92,-30 80,28 -22,107 -11,65 35,161 34,71 14,123 28,202 16,85 -7,118 -79,154 -9,4 -38,40 -45,47"/>
   <path class="fil2 str2" d="M21654 10867c-11,-27 -38,-53 -33,-81 10,-62 21,-40 59,-56 9,-4 50,2 53,-38 4,-62 93,-21 140,-100 24,-40 -43,-164 -87,-191 -19,-11 -65,-70 -83,-88 -46,-49 -28,-34 -31,-103 -1,-29 -3,-31 -2,-64 2,-44 44,-58 64,-94 38,-65 5,-39 10,-65 5,-25 68,-19 68,-74 0,-56 -19,-15 10,-84 8,-19 -35,-105 4,-129 26,-16 147,-114 156,-135 26,-65 -31,-109 40,-161 40,-29 90,34 122,-91 7,-26 79,-147 107,-153 39,-8 56,4 81,-55 22,-54 47,-88 106,-105 46,-13 46,25 67,66 28,54 0,203 87,162 66,-31 56,-43 111,-18 83,38 40,47 73,102 30,50 27,34 66,70 84,78 51,56 75,154 21,87 14,143 115,165 114,25 120,67 211,113 49,24 87,2 119,-34 34,-39 85,-50 126,-17 65,52 35,36 118,49 58,9 116,53 135,108 1,3 1,7 3,9 46,42 94,82 141,122"/>
   <path class="fil2 str2" d="M16729 2346c-3,74 5,103 -65,125 -49,16 10,109 -63,87 -35,-10 -102,70 -89,103 19,50 66,73 95,98 42,36 129,78 176,91 27,7 10,-6 39,13 19,13 -17,91 11,128 21,27 23,84 14,117 -13,45 26,98 26,123 0,52 -1,81 18,131 11,31 -18,96 -55,94 -16,-1 -24,5 -47,-1 -41,-12 -56,21 -112,19 -51,-2 -67,60 -113,60 -41,0 -51,11 -86,24 -31,11 -30,7 -53,38 -50,67 -36,28 -99,28 -62,0 -204,18 -243,-43 -4,-6 -64,-42 -77,-43 -20,-1 -40,-3 -61,-5"/>
   <path class="fil2 str2" d="M15890 3763c-27,82 -19,98 37,149 31,28 -16,144 105,174 41,10 67,31 62,68 -19,129 17,56 10,152 -3,45 -23,62 -1,103 15,28 -41,154 18,223 47,55 36,195 127,193 23,0 89,3 108,16 27,19 30,64 85,98 24,14 11,47 58,50 35,2 62,38 36,75 -51,71 -24,77 -4,140 10,34 4,101 -17,130 -42,57 -56,32 -63,117 -2,24 -64,58 -48,143 4,21 18,56 23,84 8,53 32,95 86,111 43,13 63,24 100,48 29,18 60,32 95,38 4,1 12,4 16,5 28,5 84,16 114,26 12,4 93,-15 111,-29 19,-15 57,-28 76,-8 84,88 78,77 130,191 45,99 133,57 225,61 52,3 17,52 80,92 84,53 38,90 101,144 54,46 -20,109 146,139 45,8 140,-20 149,71 14,148 90,32 203,73 82,29 45,-35 130,65 1,2 3,3 5,5 60,52 43,19 43,102 0,67 0,24 28,57 23,27 -15,109 69,97 44,-6 52,86 96,117 16,11 24,37 67,65 44,28 56,57 67,105 12,52 47,69 51,106 2,20 -18,29 -7,88 12,63 -74,95 13,132 25,11 105,28 138,41"/>
   <path class="fil2 str2" d="M21229 1000c-20,41 -22,47 -43,82 -34,56 -36,52 -95,86 -34,20 -54,42 -36,78 53,110 5,86 32,177 16,52 26,43 24,106 -1,40 32,101 66,121 29,17 58,62 58,95 -1,50 -6,128 51,152 60,25 5,76 73,93 40,10 43,65 34,98 -14,48 -10,98 -12,147 -4,92 21,41 56,86 33,43 -58,68 -21,125 60,93 -38,75 22,183 23,42 22,62 28,100 6,34 -2,44 -32,55 -47,18 -26,43 -79,60 -28,9 -89,-36 -112,-2 -17,25 18,60 -30,68 -9,2 -76,110 -131,81 -41,-21 -60,27 -115,36 -66,11 -50,-53 -112,-25 -52,24 -139,-12 -99,82 7,17 20,78 7,93 -31,33 -77,44 -98,104 -36,99 -70,74 -132,137 -90,90 -63,85 -114,186 -16,32 -22,51 -32,84 -19,61 -57,50 -66,119 -5,43 -61,56 -91,76 -113,76 -55,141 -155,233 -25,23 -60,16 -100,69 -15,20 -85,108 -75,129 9,20 23,18 33,63 8,36 21,79 31,116 1,2 1,4 2,6 14,25 78,130 81,160 3,29 -8,97 -42,110 -42,17 -58,27 -79,70 -21,43 17,40 17,92 0,52 28,114 71,144 35,25 78,79 125,98 50,21 83,38 114,82 32,44 90,25 155,93 112,119 208,30 326,115 22,16 56,12 62,42 21,101 1,168 -26,266 -14,51 51,10 51,86 0,82 1,117 -19,199 -19,80 73,90 57,152 -18,71 66,102 -10,188 -48,53 -42,104 -4,161 33,50 105,66 87,145 -1,2 0,5 -2,7 -39,59 -58,46 -114,68 -49,19 -94,112 -58,165 14,20 21,45 52,56 43,16 101,47 99,100 -1,24 2,37 -3,65 -25,141 6,164 -138,235 -36,18 -65,35 -103,1 -45,-40 -40,-93 -110,-129 -64,-32 -159,-11 -195,54 -44,77 -35,85 -2,172 26,69 131,147 45,213 -26,20 -56,13 -93,59 -53,67 -19,113 -23,191 0,3 -2,7 0,10 30,79 46,85 94,142 54,63 0,165 22,244 8,29 18,97 27,131"/>
   <path class="fil2 str2" d="M4188 10071c79,14 50,18 91,30 82,25 135,-27 248,26 69,32 91,37 164,50 59,11 81,42 103,92 30,66 94,126 131,187 17,28 29,52 45,81 6,11 56,61 67,71 64,54 74,48 99,132 41,140 79,83 115,141 23,37 10,73 72,114 40,27 69,66 125,87 77,29 110,32 180,80 69,47 111,-12 167,-10 53,1 107,-112 194,-132 35,-8 -35,123 27,108 163,-38 62,118 138,163 109,65 130,-39 218,6 58,30 53,128 117,86 67,-45 69,13 95,63 36,69 18,-9 86,10 61,18 37,61 106,64 78,4 90,61 155,84 111,39 38,-44 60,-82 37,-62 27,-23 91,-35 36,-7 96,-1 83,50 -14,56 -11,126 14,179 49,99 107,-14 165,28 46,33 -26,108 79,160 42,21 73,50 74,101 1,33 -75,-6 -122,58 -38,53 72,73 89,87 38,31 59,29 110,17 58,-13 196,-57 242,-12 64,63 105,-18 182,-17 46,1 10,46 -3,73 -30,64 -68,137 48,105 63,-18 199,-129 146,39 -3,9 -16,40 -21,49 -36,64 -47,103 28,109 35,3 82,-9 97,44 3,10 -13,55 -33,64 -44,19 -16,29 -85,45 -38,8 -19,27 -45,52 -41,40 -26,47 -86,75 -24,11 -59,53 -64,78 -9,43 -9,118 54,69 94,-73 50,-21 94,-34 28,-8 43,-43 72,-46 84,-8 -25,81 45,81 36,0 64,7 84,37 18,27 83,12 50,63 -23,35 -109,17 -145,129 -34,108 145,5 165,7 52,6 -1,92 -10,113 -28,60 -70,118 -30,186 18,30 50,16 92,48 33,25 80,-9 141,12 23,8 38,2 72,23 65,41 48,62 85,123 32,52 55,113 112,48 62,-71 91,-4 114,-7 41,-6 102,-112 115,-33 10,59 -61,158 53,143 28,-4 172,-35 100,37 -21,21 -43,81 6,81 28,0 69,3 77,34 2,7 2,8 3,15 12,104 37,42 63,55 17,9 -4,64 46,28 19,-13 38,-3 36,23 -5,77 145,-67 104,51 -17,50 -85,123 -2,146 7,2 74,37 81,43 26,24 7,175 97,123 56,-33 80,-6 115,30 17,17 34,3 83,63 27,34 69,33 78,-22 3,-21 44,-165 64,-79 14,59 50,108 100,39 49,-69 81,-18 55,50 -11,31 -33,119 25,111 84,-12 27,86 156,14 40,-22 68,-17 105,-28 52,-15 152,-45 145,40 -6,82 27,23 72,93 30,46 -69,97 65,126 31,7 73,46 77,82 6,52 147,80 181,114 39,38 29,108 131,50 64,-37 56,20 147,-23 27,-13 94,-43 108,5 7,25 -57,82 13,60 57,-19 58,14 14,43 -21,14 -45,43 -16,64 20,15 61,-22 59,52 -1,59 52,28 66,1 18,-34 13,-107 55,-126 18,-8 22,-26 53,-32 52,-11 55,50 100,-16 24,-35 90,-85 135,-71 10,3 38,22 33,39 -37,117 -146,59 -146,186 0,63 87,-40 151,-29 33,5 66,0 30,56 -34,52 -14,91 56,40 66,-49 135,-68 197,-3 10,11 34,57 56,12 14,-29 10,-83 40,-134 28,-46 21,-59 71,-104 69,-62 109,31 100,96 -23,161 13,82 51,124 23,25 12,147 107,72 32,-25 80,-29 109,1 10,10 33,23 46,24 74,5 68,2 65,56 -2,44 10,32 31,74 26,52 2,101 26,167 21,59 6,121 -38,165 -15,15 -81,-17 -46,29 22,29 -49,135 38,104 43,-15 90,-12 121,25 35,43 142,7 175,94 6,15 59,73 73,75 65,8 60,8 110,23 17,5 42,34 72,48 21,10 38,68 22,95 -18,32 -58,120 6,122 41,2 35,-8 68,35 28,37 -36,114 2,160 30,36 -25,81 47,98 65,15 13,100 52,113 13,4 67,-40 84,15 35,113 40,71 69,171 7,24 18,41 32,54 29,26 72,32 119,35 72,4 47,5 113,31 37,15 39,-4 94,30 54,33 77,-61 189,-42 51,9 77,44 132,59 96,25 80,113 246,33 66,-32 156,-14 211,33 28,24 113,49 154,75 26,17 89,46 116,61 73,42 85,70 139,123 17,17 128,80 157,96 62,33 68,90 55,153 -5,25 -8,72 3,96 0,1 6,17 6,17 10,11 21,22 31,34"/>
   <path class="fil2 str2" d="M12861 15488c57,-77 50,-35 98,-80 47,-44 -16,-134 96,-221 34,-26 5,-19 52,-39 42,-18 143,-124 166,-96 20,24 4,95 112,48 47,-20 43,-18 89,-27 56,-11 80,-124 164,-76 31,18 114,-19 152,-25 85,-14 64,31 129,23 7,-1 14,0 21,-2 79,-23 73,-7 139,-11 31,-2 117,-45 141,-66 12,-11 61,-42 81,-41 49,2 15,26 103,-9 108,-43 55,66 151,73 40,3 22,-25 57,17 33,40 118,-27 140,-56 65,-87 85,-44 177,-78 28,-10 142,-22 166,-5 35,25 38,40 53,52 14,11 17,2 48,31 43,41 17,108 110,132 1,0 3,0 5,1"/>
   <path class="fil2 str2" d="M4387 12907c71,26 91,54 162,76 78,24 106,-2 164,-44 38,-27 108,-41 146,-4 41,41 89,35 146,79 31,25 72,43 104,76 38,40 63,35 56,107 -6,69 48,127 84,181 7,11 33,20 45,28 113,72 70,47 126,134 21,32 25,156 53,202 57,93 157,-53 187,-29 15,12 6,40 2,63 -17,98 -32,75 24,154 12,18 -17,40 0,93 21,69 31,128 -39,171 -19,12 -28,4 -60,32 -92,79 37,75 22,165 -13,81 -5,161 68,211 17,12 23,56 54,78 19,14 36,36 29,60 -20,75 120,42 102,111 -10,38 -56,112 -54,132 3,25 123,60 54,97 -16,8 -98,85 -54,108 64,33 102,-2 149,57 20,26 28,51 65,24 39,-29 98,-40 108,21 21,127 81,-71 135,2 47,63 -80,134 51,191 25,11 72,10 106,22 47,16 144,35 73,89 -43,33 -38,69 15,83 38,10 50,53 78,85 36,41 5,19 55,47 15,8 20,54 59,74 19,10 56,59 58,81 4,32 4,115 40,135 28,16 53,19 74,34 30,20 65,58 87,86 5,6 48,55 54,56 22,4 101,46 86,74 -4,6 -39,22 -76,29 -53,9 -116,7 -138,75 -19,59 56,89 100,99 50,11 11,47 51,57 11,3 35,19 34,32 0,0 -12,9 -18,11 -25,7 -10,12 -50,15 -25,2 -77,39 -36,55 18,7 35,27 68,39 102,39 80,-8 148,-23 42,-9 97,50 166,20 89,-39 21,-179 96,-182 24,-1 26,39 89,-15 92,-79 104,96 180,51 17,-10 85,-146 164,-68 40,40 33,38 83,71 45,29 23,60 54,105 1,2 0,5 2,6 34,25 52,40 87,59 37,21 28,53 44,87 26,55 67,57 113,22 47,-36 83,2 81,-61 -2,-61 -41,-79 19,-138 8,-7 75,-35 91,-32 37,7 107,-26 124,47 16,67 61,-24 83,8 28,39 70,63 105,17 45,-58 86,-48 131,2 33,36 -52,135 93,133 55,-1 150,80 117,152 -23,49 -76,136 -2,169 47,21 89,-57 113,-86 39,-46 53,-101 124,-69 47,21 -8,123 46,153 19,10 39,-2 51,-15 18,-18 30,-42 45,-63"/>
   <path class="fil2 str2" d="M10235 17440c83,9 66,12 123,48 29,17 79,7 119,15 44,9 69,2 116,26 77,40 75,15 69,109 -4,66 24,60 63,103 13,14 186,56 225,71 38,15 111,24 154,46 67,34 109,35 172,-8 46,-32 22,-46 91,-61 30,-6 63,-37 71,-67 10,-34 79,-110 115,-101 52,13 187,55 217,-6 37,-75 50,-80 108,-131 76,-67 95,-89 198,-91 44,-1 137,-70 185,-92 18,-8 28,-26 57,-35 27,-8 102,-41 118,-66 32,-53 75,-54 130,-36 41,14 162,-4 175,-64 20,-90 26,-115 129,-114 19,0 156,-31 167,-43 36,-38 -58,-117 53,-150 29,-9 56,56 52,83 -21,130 79,29 104,22 24,-6 92,24 108,38 75,66 67,48 143,80 50,21 -13,103 75,117 63,10 63,22 118,39 55,17 106,36 163,36"/>
   <path class="fil2 str2" d="M18922 16974c13,28 41,53 39,83 -3,46 -65,24 -60,122 2,39 -5,49 -3,88 2,40 13,52 16,80 8,64 41,142 25,204 -13,49 5,116 -40,147 -64,45 -93,26 -154,32 -29,3 -83,-7 -106,-25 -23,-17 -75,-16 -86,-20 -46,-16 -66,20 -105,-6 -31,-20 -59,-19 -90,3 -66,46 -60,58 -145,81 -61,16 -140,65 -98,138 21,36 37,126 -18,130 -121,10 -66,-160 -130,-129 -92,45 2,207 -48,242 -120,85 -192,90 -333,90 -66,0 -71,-28 -112,-39 -50,-13 -81,-71 -119,-99 -125,-93 -136,122 -239,102 -4,-1 -135,-54 -140,-57 -49,-31 -56,-15 -93,-26 -61,-18 -117,44 -148,47 -66,7 -48,-3 -123,41"/>
   <path class="fil2 str2" d="M19145 16752c69,-23 64,-15 123,-19 8,-1 102,-4 103,-4 21,8 70,1 69,-29 -1,-40 21,-52 61,-66 37,-13 57,20 118,-35 41,-36 46,-7 95,-2 62,5 79,-53 136,-84 54,-29 68,-12 129,-9 70,4 45,-66 134,-68 15,0 33,1 55,5 74,14 191,-158 243,-100 7,8 11,33 41,60 57,51 140,-46 203,39 20,27 6,48 18,82 14,38 9,66 71,59 137,-15 97,-3 150,-116 40,-83 136,-43 174,-189 14,-53 34,-99 50,-154 12,-43 52,-50 90,-53 57,-6 86,125 86,168 0,75 -4,91 13,168 12,55 -32,114 69,159 98,44 78,138 213,133 40,-1 70,-19 124,-10 67,12 70,40 153,28 53,-8 105,-9 152,20 21,13 97,35 120,32 63,-8 157,-9 206,35 6,6 10,13 17,17 75,48 59,55 140,87 29,11 96,53 107,82 11,29 93,77 109,115 12,29 94,92 110,143 23,73 -12,126 88,178 86,44 25,83 142,150 77,45 54,135 73,208 8,33 5,69 20,105 24,59 34,73 51,128 9,30 83,59 64,160 -7,38 51,165 49,241 -2,118 9,137 -48,250 -24,47 -43,62 -59,101 -5,13 -10,28 -14,49 -4,18 -33,119 -36,131 -13,52 -20,106 -30,159"/>
   <path class="fil2 str2" d="M23264 18667c21,40 62,108 109,122 46,14 94,26 124,65 4,6 18,22 21,27 18,27 40,50 60,75"/>
   <path class="fil2 str2" d="M23205 18768c27,56 47,116 80,168 30,47 72,86 108,129"/>
   <path class="fil2 str2" d="M15558 14566c57,-38 63,-31 112,-55 33,-15 83,-10 125,-47 22,-19 113,-74 145,-80 63,-11 134,-26 186,23 11,10 70,42 83,41 107,-3 63,43 154,63 56,13 78,23 136,36 120,27 68,55 218,29 59,-10 108,-13 160,19 41,25 96,-20 163,-20 82,0 57,2 138,-27 56,-20 62,-23 121,-21 51,1 25,-11 79,11 39,16 104,-48 181,-33 82,16 94,69 167,8 54,-46 177,-67 235,-24 10,7 14,6 23,13 99,79 49,53 164,58 28,1 98,35 119,54 62,56 147,-57 210,0 42,38 119,-25 167,13 102,81 207,-53 281,-20 78,35 142,-7 229,2 25,3 50,27 104,25 44,-1 97,22 152,15 36,-5 158,-32 159,36 0,2 60,166 64,171 45,52 47,25 63,101 1,5 3,7 4,12 19,169 15,145 121,258 50,53 97,318 115,396 12,50 3,151 21,179 14,21 14,34 27,54 70,108 86,140 86,263 0,30 -5,65 -5,100 0,49 24,61 30,108 4,30 15,75 15,107"/>
   <path class="fil2 str2" d="M22573 5887c0,-18 -1,-38 0,-55 2,-22 13,-38 8,-62 -1,-4 -6,-49 -6,-53 0,-29 28,-51 45,-77 33,-49 11,-79 -1,-129 -4,-17 -22,-34 -27,-57 0,-1 -1,-2 -1,-3 -14,-75 -13,-82 -8,-151 2,-26 15,-53 41,-62 65,-22 48,34 143,-1 35,-13 57,-21 94,-20 36,2 90,-30 97,-74 20,-120 4,-85 95,-164 41,-36 -4,-81 59,-142 68,-67 -32,-103 119,-176 98,-48 22,-115 140,-135 29,-5 113,-62 148,-82 83,-47 103,-81 198,-57 33,8 17,-13 70,17 5,3 22,11 28,8 25,-15 47,-35 71,-53"/>
   <path class="fil2 str2" d="M11920 20000c110,-126 140,-57 244,-147 35,-30 53,-36 90,-77 25,-28 107,-78 144,-78 45,1 122,3 160,-17 84,-43 41,-103 68,-130 70,-68 67,-40 60,-137 -5,-83 2,-87 61,-134 5,-4 60,-72 70,-84 61,-76 105,-93 146,-184 42,-93 66,-72 138,-141 65,-62 67,-101 117,-162 11,-13 30,-44 43,-61 54,-73 39,-95 136,-140 24,-11 58,-15 90,-33 81,-46 186,-88 280,-65 55,13 103,13 160,31 38,12 83,10 119,14 50,7 60,8 101,10 102,6 76,-14 181,25 65,25 69,1 134,20 22,6 151,44 163,41 39,-8 44,-45 103,-2 21,15 39,25 60,43 29,25 95,38 129,20 103,-55 107,37 186,24 82,-13 127,61 218,-14 62,-51 110,-63 178,-22 57,34 120,-12 183,42 14,12 32,30 57,34 59,8 63,16 96,60 25,34 30,63 85,52 100,-20 54,14 125,19 35,3 60,-25 52,-64 -5,-27 -14,-76 3,-99 4,-5 6,-13 11,-17 14,-12 31,-21 46,-32"/>
  </g>
  <path class="fil2 str3" d="M6085 18797c-19,-15 -59,-48 -84,-18 -18,21 -5,63 6,84 1,0 15,11 22,13 53,11 29,30 69,-10 10,-10 -6,-25 -7,-29l-5 -40zm16601 -15180c45,38 37,25 44,68 6,36 -53,39 -73,107 -26,88 -108,87 -171,142 -29,25 -46,53 -84,47 -66,-10 -54,54 -152,73 -112,22 -95,18 -112,131 -8,52 -36,39 -15,115 8,29 -26,49 8,96 42,58 -72,84 -53,143 12,39 34,29 29,108l0 6c54,102 15,83 153,73 30,-2 123,-24 131,8 18,72 -5,126 11,201 8,37 19,83 8,118 -15,49 -50,102 -7,146 33,34 28,96 48,150 28,75 34,92 -48,125 -42,17 -41,5 -91,36 -37,23 -24,1 -62,48 -45,56 -46,112 14,158 48,37 160,-44 225,-58 12,-2 91,11 101,19 -8,12 -15,24 -15,38 0,4 5,49 6,53 5,24 -6,40 -8,62 -1,18 -1,37 0,55 16,115 -34,146 -34,168 2,57 45,30 -7,74 -86,72 8,112 24,180 7,31 33,116 -6,127 -36,10 -68,-8 -107,28 -14,13 -22,6 -39,38 -17,31 -69,102 -110,86 -98,-38 -95,14 -183,34 -29,6 -47,25 -95,30 -119,11 28,52 24,79 -2,13 -14,33 -20,46 -39,84 -38,116 45,156 34,16 63,9 91,-11 33,-23 79,-3 103,21 40,40 142,19 110,86 -19,39 35,52 14,130 -28,102 -7,83 -9,174 -1,28 -53,167 -85,185 -68,39 -87,-60 -127,-49 -36,11 -28,-1 -66,25 -30,20 -95,9 -83,81 5,31 110,14 145,19 37,6 124,5 103,63 -2,7 -6,17 -7,23 -49,61 -48,63 -81,124 -10,19 -48,54 -66,64 -17,9 -61,-27 -97,13 -13,14 76,9 100,21 35,17 73,54 113,49 36,-4 -45,-61 -45,-80 0,-14 66,-90 113,-53 56,45 93,-5 93,88 0,73 36,80 89,121 22,17 151,95 175,100 29,6 75,23 69,59 -9,53 -14,55 -14,115 0,189 39,56 204,129 81,36 11,133 126,109 37,-8 78,-13 103,22 4,9 25,85 38,92 41,25 94,-33 99,35 1,11 8,13 7,38 -1,37 11,56 -18,97 -49,70 -45,34 -119,69 -30,14 -49,14 -65,55 -8,22 57,51 79,96 35,70 -49,101 -95,149 -33,34 -77,102 -124,100 -51,-2 -104,22 -151,44 -4,-6 -9,-14 -16,-25 -32,-54 10,-64 -73,-102 -55,-25 -45,-13 -111,18 -87,41 -59,-108 -87,-162 -21,-41 -21,-79 -67,-66 -60,17 -84,51 -106,105 -25,60 -42,47 -81,55 -28,6 -100,127 -107,153 -32,125 -82,62 -122,91 -71,52 -14,97 -40,161 -9,21 -130,120 -156,135 -39,24 4,110 -4,129 -29,70 -10,29 -10,84 0,56 -63,49 -68,74 -5,26 28,-1 -10,65 -21,36 -62,50 -64,94 -1,32 0,34 2,64 3,69 -15,54 31,103 18,19 64,77 83,88 45,27 111,150 87,191 -47,78 -136,37 -140,100 -3,40 -44,34 -53,38 -39,16 -49,-6 -59,56 -5,29 22,54 33,81l0 0c-33,6 -72,29 -95,40 -66,31 -103,34 -174,29 -113,-8 -136,45 -222,-42 -38,-38 -17,-29 -90,-52 -7,-2 -22,-7 -28,-12 -24,-20 -12,-92 -78,-101 -54,-8 -49,14 -98,-13 -58,-32 -103,-118 -139,-127 7,-7 36,-42 45,-47 73,-36 95,-69 79,-154 -15,-79 6,-132 -28,-202 -46,-96 -58,-54 -35,-161 12,-58 -46,-44 -80,-28 -111,53 -121,-20 -117,-115 3,-58 18,-115 73,-143 22,-11 131,-60 133,-82 7,-94 -41,-140 -18,-253 6,-32 33,-73 51,-100 15,-23 57,-46 45,-73 -43,-95 47,-205 5,-281 -48,-85 -14,-90 -109,-157 -49,-35 -36,-73 -90,-86 -67,-17 -114,-42 -147,-108 -6,-12 -74,-81 -106,-111 -7,-6 -12,-11 -15,-13 -45,-32 -109,-72 -164,-39 -35,21 -58,35 -94,54 -28,15 -84,12 -98,17 -96,32 -100,2 -143,115 -13,34 -70,84 -102,65 -20,-12 -40,-106 -60,-106 -26,0 -42,8 -55,16 -25,105 -136,132 -161,84 -62,-120 -147,-56 -179,-87 -54,-50 -4,-37 -102,-81 -210,62 -52,-62 -165,-77 -70,-9 -81,-92 -110,-39 -39,72 22,95 -5,122 -47,48 2,93 -21,121 -43,51 -99,58 -49,134 20,30 10,46 -26,47 -43,2 -80,10 -106,-31 -21,-32 -47,-64 -80,-86 -41,-28 -76,-38 -106,-57 -79,-50 -193,-24 -235,-47 -47,-26 -93,-32 -143,-7 -54,26 4,-73 13,-86 47,-63 -41,-31 -2,-151 22,-66 -14,-28 -51,-74 -29,-36 -72,-37 -113,-20 -42,17 -81,20 -84,-37 -7,-117 10,-107 -49,-227 -26,14 -52,26 -77,2 -42,-42 -63,-10 -97,-35 -41,-30 -25,-16 -66,-25 -58,-13 -71,39 -98,17 -24,-19 3,-16 -55,-48 -22,-12 -137,-20 -171,-35 -70,-30 -90,-38 -171,-48 -34,-4 -74,6 -97,32 -26,29 -68,83 -104,27 -65,-99 -131,-1 -222,-92 -39,-39 -18,-140 -97,-139 -86,1 -38,-77 -82,-91 -26,-8 -49,-5 -68,6 0,22 -6,99 -10,116 -9,32 -10,85 27,97 116,36 31,71 88,105 23,14 23,42 27,52 7,16 5,56 8,74 4,32 -18,103 -49,118 -31,15 -22,10 -56,36 -31,20 -37,17 -70,21 -49,7 -38,69 -5,93 24,18 37,37 40,68 8,75 -19,46 20,129 32,68 -106,52 -40,120 21,22 14,42 9,74 -12,83 32,133 27,151 -13,51 -106,-5 -129,52 -29,75 -83,36 -139,26 -45,-8 -69,125 -89,166 -13,26 -8,28 -15,44 -24,56 34,66 57,89 15,15 -7,103 -9,129 -1,26 -20,105 -43,119 -71,43 -73,-61 -145,-28 -68,31 -79,-25 -113,8 -19,18 -51,38 -69,6 -13,-22 -6,-41 -26,-79 -44,-84 -64,-45 -101,-102 -28,-42 -61,-108 -123,-77 -32,16 -64,22 -91,34 -26,12 -134,41 -142,48 -46,36 116,84 129,96 9,8 -91,83 -93,84 -18,32 -52,106 -36,143 27,64 -80,112 -41,170 28,42 51,125 -24,76 -30,-19 -88,-31 -80,19 21,130 -90,35 -93,112 -3,72 29,69 20,132 -10,69 11,72 70,68 40,-3 44,36 44,68 0,48 52,29 58,23 36,-33 34,24 19,54 -21,43 23,66 52,58 38,-11 84,50 98,80 28,63 55,68 117,98 -1,20 7,40 -9,49 -59,34 -54,-4 -113,3 -64,7 -16,29 -110,4 -44,75 -40,46 -79,98 -4,6 -49,114 -52,122 -7,22 -50,139 -79,122 -24,-14 -33,-46 -73,9 -25,34 -46,69 -35,110 5,18 2,35 13,56 4,7 32,143 32,155 0,11 0,22 1,35 -36,19 -70,41 -113,26 -28,-10 -89,4 -102,28 -44,83 -64,12 -94,-17 -25,-24 -85,56 -95,73 -20,34 -28,61 -10,100 14,31 -10,33 -26,24 -44,-23 2,10 -52,23 -49,12 -8,57 22,66 25,7 -46,24 -60,24 -98,-2 -44,27 -3,62 34,30 -1,81 -29,102 -40,30 -65,90 -13,115 22,10 52,35 68,44 50,28 -10,54 -45,80l0 0c-3,-3 -9,-11 -13,-12 -39,-7 -81,-47 -119,5 -22,29 -22,39 -53,76 -59,31 -82,16 -91,-45 -10,-75 -41,-71 -105,-73 -83,-2 -85,-5 -43,-76 19,-33 58,-65 50,-97 -13,-51 51,-84 -16,-88 -100,-7 -56,-54 -62,-89 -11,-59 -48,4 -82,-13 -9,-4 -17,-73 -96,-20 -33,22 -56,42 -93,66 -25,16 -45,14 -55,20 -43,24 24,87 -17,120 -70,56 -17,107 -76,149 -78,57 18,88 -56,126 -30,15 -101,56 -107,93 -7,46 -1,54 -19,105 -12,-17 -124,5 -107,62 21,73 41,70 -23,85 -27,6 -54,-2 -78,-7 -7,-10 -24,-27 -29,-39 -15,-38 -57,-32 -82,-7 -22,22 -51,14 -59,-13 -22,-77 -23,-35 -71,-45 -16,-3 -41,24 -46,38 -12,37 -30,44 -68,58 -4,12 -12,26 -15,40 -21,89 49,14 67,108 9,45 -35,106 14,129 -24,16 -69,74 -88,97 -13,15 -14,78 -14,99 0,68 -37,66 10,123 50,61 -49,103 -98,105 -37,2 -51,8 -87,13 -62,9 -141,103 -169,24 -19,-52 -24,-4 -67,-43 -42,-38 -29,45 -34,75 -15,94 88,40 98,110 8,53 -28,88 -62,121 -31,30 -106,38 -104,53 8,60 56,73 -15,126 -22,17 -44,63 -54,88 -28,70 -82,-85 -118,-93 -86,-21 -56,-87 -63,-98 -15,-24 -57,84 -61,100 -12,45 -44,63 -76,27 -10,-11 -33,-100 -33,-106 3,-36 -43,-3 -60,4 -30,12 -10,114 -86,117 -53,2 -19,34 -25,55 -10,34 -2,92 -50,99 -113,16 -92,12 -146,116 -2,2 -39,16 -45,18 -81,31 -99,9 -126,16 -50,14 -45,62 -46,100 0,20 52,55 68,62 85,41 -35,72 -42,95 -18,58 104,11 67,52 -34,39 -127,41 -86,107 35,56 44,31 67,49 11,8 18,90 13,100 -33,60 -12,52 28,67 20,7 69,5 69,14 0,53 -43,78 -52,100 -17,41 -83,38 -87,-15 -2,-22 -21,-44 -27,-58 -12,-28 -57,25 -61,37 -20,52 -85,9 -87,-4 -18,-89 -66,-42 -92,-71 -47,-52 -85,10 -126,10 -73,0 -52,24 -49,67 7,108 -41,99 -51,44 -8,-45 -31,-54 -37,-68 -13,-29 -22,-24 -25,-28 -18,-27 -93,-24 -103,-8 -26,40 -32,46 -75,79l0 0c6,-85 -93,-55 -145,-40 -38,11 -66,6 -105,28 -129,72 -71,-26 -156,-14 -58,8 -36,-81 -25,-111 26,-68 -6,-120 -55,-50 -49,69 -85,21 -100,-39 -21,-86 -61,58 -64,79 -9,55 -51,56 -78,22 -48,-60 -66,-46 -83,-63 -35,-36 -59,-63 -115,-30 -90,53 -71,-99 -97,-123 -6,-6 -73,-41 -81,-43 -14,-4 -24,-9 -30,-16 -10,14 -35,57 -43,73 -25,50 1,65 2,83 2,56 -11,82 -69,102 -72,25 -29,95 5,101 80,15 -43,84 52,126 76,34 31,27 46,64 20,49 50,-25 62,57 9,56 25,79 31,140 -2,23 -23,26 -43,32 -59,16 -53,82 -18,111 30,25 6,76 45,95 28,14 11,10 26,20 6,5 11,82 16,100 10,42 -70,26 -74,89 -5,80 85,15 60,91 -19,58 19,98 -9,116 -93,59 -80,-33 -113,-25 -53,13 -48,-14 -51,-59 -4,-55 -90,-24 -89,22 2,85 -45,61 -108,65 -38,3 -33,4 -65,24 -42,26 -68,-7 -70,-43 -2,-31 -59,-47 -82,-39 -70,25 -60,87 -130,25 -18,-16 -97,26 -115,39 -18,14 -127,17 -147,10 -48,-20 -33,106 -37,119 -10,35 25,103 -11,127 -47,32 -85,29 -142,45 -42,1 -100,42 -92,-15 11,-85 -68,-9 -125,-40 -53,-29 -38,-28 -63,-71 -9,-15 -24,-50 -40,-53 -63,-14 -12,-69 -38,-81 -40,-18 -76,7 -113,20 -59,22 -62,-1 -96,-18 -57,-29 -59,1 -81,28 -28,34 -127,-36 -119,10 15,80 63,88 70,99 27,42 -77,57 -98,66 -43,18 -10,90 -13,130 -4,63 3,69 -29,123 -10,18 -79,29 -95,28 -38,-1 -108,36 -153,41 -56,7 -45,8 -98,29 -73,29 -45,14 -97,68 -14,14 -70,14 -88,6 -31,-15 -44,34 -45,54 -5,70 -16,81 -71,138 19,15 -1,41 31,49 11,3 35,19 34,32 0,0 -12,9 -18,11 -25,7 -10,12 -50,15 -22,2 -64,30 -47,48l-39 13c-59,37 -37,38 -114,67 -44,16 -81,-8 -71,-49 24,-101 -72,-22 -22,-105 29,-49 -57,-51 -81,-47 -65,10 -35,-6 -68,-17 -35,-12 -63,-12 -71,33 -11,63 31,64 -67,83l-5 3c-32,21 -38,32 -78,43 -36,9 -50,48 -51,82 -1,69 -66,40 -73,-5 -5,-39 -19,16 -66,6 -31,-7 -48,16 -48,46 1,57 -27,87 -42,37 -17,-56 -6,-29 -41,-56 -27,-21 -27,50 -27,61 0,61 -44,55 -36,73 19,43 60,-14 68,-14 46,1 1,62 33,80 35,20 68,-5 83,32 22,51 41,59 23,108 -12,31 79,27 55,87 -23,57 -39,23 -55,15 -71,-34 -15,94 -22,113 -17,48 2,34 14,66 25,68 -22,62 -13,83 33,78 76,-37 117,-22 7,3 108,66 118,74 25,20 90,34 121,34 71,0 80,36 117,88 -3,10 -2,17 -2,26 0,71 -57,37 -34,129 10,38 -47,99 -19,124 29,25 26,55 -12,65 -19,5 -69,-11 -87,-20 -25,-13 -48,-13 -51,-15 -8,-4 -98,40 -101,43 -12,14 -85,101 -78,114 22,47 133,-4 169,-19 80,-32 103,39 81,98 -32,86 -66,223 -149,276 -34,22 -27,18 -28,46 -1,29 26,81 -8,84 -46,3 -52,-53 -64,-23 -18,49 -19,119 16,160 22,26 -7,80 -17,111 -7,9 -20,22 -30,28 -51,34 -66,32 -121,32 -46,0 -103,34 -121,31 -33,-5 -49,-10 -56,-47 -10,-53 -36,-101 -70,-23 -32,76 -78,23 -111,58 -43,45 -93,24 -89,95 1,26 -3,36 -3,60 0,43 -67,37 -86,55 -33,31 45,38 45,56l0 0c0,3 -3,7 -9,12 -32,22 -188,41 -242,71 -101,57 -62,-13 -136,-46 -27,-12 12,-150 -33,-192 -35,-33 -33,-16 -33,-73 0,-22 -32,-30 -51,-33 -62,-7 -100,1 -124,-70 -16,-47 -13,-116 -52,-43 -18,33 -62,73 -66,80 -9,15 -93,68 -105,72 -91,29 -45,-32 -162,21l-105 8 0 0c-39,-58 -100,-38 -89,-110 9,-59 -4,-62 -10,-112 -16,-132 -125,-122 -123,-193 4,-111 -83,-147 -179,-164 -82,-14 -67,-83 -95,-149 -28,-65 -15,-117 -32,-154 -11,-23 -78,-33 -67,-71 21,-68 -18,-227 -22,-306 -19,-36 -32,-65 -59,-98 -40,-49 -35,-71 -57,-118 -20,-42 -20,-57 -31,-99 -14,-57 -10,-59 -7,-113 4,-79 -86,24 -58,-115 7,-35 -32,-144 -45,-181 -17,-47 -59,-211 -78,-238 -15,-20 -7,-56 10,-66 51,-30 29,-66 -7,-74 -44,-10 -6,-62 24,-41 15,11 15,9 28,10 1,-4 10,-23 5,-35 -29,-70 -48,-2 -33,-99 -25,-49 -29,-67 -32,-122 -5,-97 -47,-100 -31,-225 4,-32 30,-67 21,-85 -20,-36 -44,10 -62,-63 -18,-74 41,-118 8,-133 -65,-29 0,-39 -22,-99 -6,-16 -2,-89 3,-106 26,-88 -5,-60 -25,-80 -23,-23 30,-43 37,-46 8,-31 4,-57 -32,-66 -94,-22 -58,-61 -32,-56 65,12 27,-57 26,-80 -4,-68 11,-56 -13,-131 -25,-81 -51,-72 -62,-163 -5,-39 -37,-110 -38,-134 -1,-29 -10,-52 -13,-73 -8,-56 -25,-70 -76,-89 -50,-18 10,-69 35,-45 63,62 65,-33 37,-69 -39,-50 -31,-75 -22,-141 -4,-4 -5,-8 -8,-11 -17,-21 -129,-20 -98,-58 15,-19 20,-42 32,-51 52,-44 7,-61 -12,-88 -9,-13 -21,-59 -24,-76 -24,-142 -73,-110 -94,-177 -13,-41 42,-60 66,-59 27,1 -23,-45 -24,-45 -83,-56 -77,-77 -74,-173 1,-31 -19,-50 -28,-68 -28,-59 19,-84 31,-106 8,-16 -41,-190 -51,-213 -25,-56 -47,-99 -62,-161 -13,-45 -24,-104 -68,-126 -71,-35 29,-69 -75,-117 -43,-20 15,-130 -37,-172 -67,-54 37,-100 -47,-117 -77,-16 28,-127 -62,-191 -30,-21 -3,-68 11,-92 14,-23 21,-115 15,-138 -17,-67 -121,-61 -124,-63 -4,-3 16,-44 19,-49 33,-47 -52,-89 5,-115 30,-14 31,-14 44,5 19,29 19,78 21,84 30,72 95,24 151,35 35,7 101,17 95,-36 -5,-37 31,-60 -65,-53 -34,2 -22,-3 -42,-5 -54,-4 -46,-44 -91,-48 -55,-4 -62,-32 -78,-84 -2,-7 -4,-11 -6,-18 -9,-26 -46,-63 -70,-65 -53,-5 -16,-70 -14,-96 3,-48 -45,14 -45,-80 0,-120 -72,-110 -25,-214 31,-67 -21,-138 42,-117 45,15 -6,-107 -17,-121 -5,-6 -49,-95 -57,-109 -24,-42 -35,-39 -60,-94 -11,-23 -22,-66 -15,-91 12,-46 19,-200 19,-244 0,-19 -7,-41 2,-59 17,-31 42,-33 71,-19 60,28 94,32 121,-35 23,-57 40,39 62,40 36,1 39,-30 42,-59 1,-13 17,-103 7,-106 -5,-1 -38,19 -55,23 -69,15 -85,26 -100,-51 -6,-31 -27,-37 -27,-58 0,-22 11,-26 17,-39 21,-40 40,6 58,6 28,-1 31,-40 24,-62 -18,-53 3,-39 3,-73 0,-23 18,-44 41,-39 64,12 63,-22 87,-17 30,7 58,-19 51,-44 -5,-19 -18,-32 -34,-43 -4,-15 -7,-34 -12,-48 -22,-57 -20,-59 -30,-115 -11,-62 -20,-94 -12,-160 1,-7 0,-50 -12,-35 -37,41 -35,122 -57,177 -2,11 -3,20 2,31 16,32 10,32 9,63 -1,32 -47,71 -76,80 -29,8 -73,35 -101,31 -68,-10 -75,-39 -90,41 -4,20 -10,36 -13,54 -11,54 -32,82 -49,129 -7,19 -23,38 -44,40 -47,4 -38,-4 -27,-45 6,-25 32,-49 28,-60 -9,-24 -28,-17 -47,-14 -8,1 -24,9 -26,5 -13,-27 47,-106 39,-155 -4,-20 -2,-41 -2,-60 -1,-33 16,-61 33,-89 28,-45 9,-56 17,-104 1,-15 -7,-48 -10,-67 -4,-31 -29,-65 -62,-64 -40,1 -34,-70 -28,-96 4,-18 12,-29 16,-41 8,-27 6,-33 -20,-42 -25,-9 -2,-87 1,-104 1,-38 -32,-37 2,-102 39,-76 0,-81 86,-120 19,-9 21,-40 -27,-30 -101,22 -79,-59 -119,-96 -29,-26 -46,-96 -37,-133 17,-71 -14,-67 -37,-112 -16,-32 54,-67 63,-91 11,-31 -6,-53 -28,-71 -83,-68 -46,-112 -60,-127 -22,-23 -29,-87 4,-104 64,-35 -23,-72 -25,-120 -3,-87 3,-131 -21,-219 -4,-9 -8,-22 -13,-30 -48,-90 -29,-99 -54,-185 -24,-83 -74,-81 -78,-93 -17,-42 32,-74 49,-94 33,-37 26,-77 17,-119 -10,-46 -50,-70 -18,-92 19,-13 41,-41 42,-42 76,-41 61,-188 61,-262 0,-51 -18,-89 31,-115 36,-19 47,-52 51,-89l0 0 70 2c7,4 39,27 47,16 23,-30 -22,-48 5,-63 14,-7 31,-5 44,4 23,17 73,-16 22,-38 -22,-10 23,-24 13,-53 -6,-18 12,-23 26,-22 20,1 12,-23 12,-34 0,-20 9,-34 30,-25 16,7 38,10 38,-13 0,-24 0,-43 28,-43 33,0 19,13 50,12 22,-1 39,-10 63,2 8,4 14,5 25,11 13,8 69,11 89,15 3,1 13,-1 18,-1l0 0c-1,6 -11,69 -5,74 14,14 49,5 37,31 -10,22 -8,43 -22,69 -5,9 -14,40 -7,48 22,24 9,63 57,41 27,-12 8,-69 41,-58 14,5 25,22 11,37 -8,9 -16,22 -8,32 11,14 17,13 29,25 21,21 -11,31 34,55 2,1 34,32 36,37 4,9 8,29 25,27 17,-2 5,-33 8,-51 4,-20 18,-35 39,-39 16,1 81,9 92,24 20,28 16,31 54,15 43,-19 30,21 57,16 40,-8 21,39 57,47 22,5 49,51 69,17 16,-27 -17,-27 26,-73 24,-25 33,-15 31,-50 0,-3 2,-14 3,-17l-10 -49 0 0c102,-65 46,-9 88,-35 54,-35 30,-67 70,-92 19,-12 49,-57 39,-71 -20,-28 15,-80 66,-62 86,31 61,29 144,-15 38,-20 68,66 85,27 24,-55 23,-93 23,-151 0,-103 39,-32 13,-163 -1,-10 -1,-15 -2,-25 -1,-28 -32,-151 -72,-150 -48,1 -25,-32 -4,-49 100,-82 51,-32 108,-131 27,-47 87,-138 97,-188 5,-23 51,-84 44,-101 -25,-61 -26,-12 -26,-88 0,-32 -68,-54 -94,-62 -21,-7 -32,-39 -31,-57 2,-51 -90,-62 -50,-90 58,-40 53,-33 98,-87 36,-44 22,-81 30,-91 32,-43 64,28 64,28 39,31 17,38 24,55 18,43 -5,84 41,68 49,-17 11,-33 91,-27 49,76 29,39 86,59 43,15 52,15 77,52 23,34 26,74 66,121 26,31 36,76 98,68 31,-4 85,-48 145,-35 102,21 114,-57 199,-91 48,-19 77,-42 86,-93 12,-61 -38,-42 -34,-116 3,-58 80,8 131,-57 39,-50 -17,-59 81,-58 69,1 125,-50 73,-119 -61,-81 56,-70 20,-207 -2,-8 -14,-60 -16,-63 -16,-63 -22,-107 -73,-147 -73,-58 72,-100 -8,-143 -30,-16 -23,-1 -50,-40 -72,-103 -117,-79 -166,-127 -26,-25 23,-145 -29,-131 -45,12 -47,1 -97,-7 -96,-15 -21,-100 -98,-74 -28,9 -37,-51 -104,-26 -47,17 -51,-17 -89,-19 -56,-27 -129,-49 -148,-116 -4,-15 11,-50 50,-10 69,71 168,-34 236,47 18,21 35,12 45,-9 43,-87 174,-34 250,-78 31,-18 20,-64 -7,-88 -37,-34 18,-83 28,-141 14,-85 64,-15 157,-51 38,-15 85,-16 114,-30l4 -3c41,-61 27,-60 31,-122 4,-61 -3,-99 -5,-157 -2,-74 91,-45 134,-81 60,-51 83,33 129,-49 12,-21 6,-102 62,-109 21,-3 75,77 130,36 19,-14 62,-19 87,-8 22,10 131,-7 158,-15 79,-24 117,4 201,-25 6,-2 9,-1 12,-3 59,-56 62,-90 63,-165 1,-40 -34,-60 -72,-45 -84,33 -51,38 -149,38 -21,0 -23,-3 -49,-2 -84,5 -63,-8 -109,-66 -25,-32 -54,49 -147,32 -38,-7 -183,22 -237,27 -50,4 -94,3 -129,38 -37,38 -57,-6 -112,24 -61,33 -120,36 -182,60 -53,21 -37,-46 -59,-89 -19,-38 0,-78 -42,-106 -14,-10 -74,-96 -82,-114 -34,-79 39,-84 96,-78 55,6 118,-6 143,-60 7,-15 11,-27 17,-41 -12,-172 -42,-102 -150,-180 -71,-51 24,-87 -24,-159 -14,-21 -49,-79 -67,-97 80,-37 74,-37 143,-58 48,-15 68,-12 119,-35 25,-11 127,-31 147,-43 69,-43 131,-54 199,-108 23,-18 108,-65 137,-80 51,-27 100,-38 152,-21l0 0c9,3 19,7 29,13 30,16 27,31 62,46 96,39 101,12 191,-1 58,-9 118,16 124,-68 1,-17 14,-55 40,-40 76,46 125,-75 176,-110 75,-53 88,-28 161,-61 23,87 -1,48 -6,108 -6,75 76,55 101,114 24,58 144,66 107,159 -17,43 -44,127 -33,172 15,60 -37,128 -4,183 33,56 17,144 62,158 31,10 61,-15 79,59 16,64 31,30 94,68 7,4 24,14 32,15 81,10 158,41 235,68 54,19 64,13 119,45 31,18 145,50 177,38 77,-28 156,-123 246,-37 19,18 157,72 191,88 38,18 49,21 87,45 78,48 141,12 163,145 6,38 33,98 55,131 65,96 130,90 223,145 44,17 48,26 83,40 59,24 178,-1 184,2 23,11 -46,84 81,48 34,-10 96,-26 129,-10 52,27 35,78 127,40 34,-14 115,-20 152,-11 47,12 95,-28 150,13 87,64 149,-50 227,7 55,40 209,-41 269,-33 87,11 105,38 211,30 49,-4 99,0 149,-7 101,-44 62,-7 138,5 55,9 115,-44 160,-1 9,8 53,18 85,46 18,15 81,33 103,27 43,-10 128,-77 138,-18 9,49 64,157 103,187 17,13 47,62 47,89 0,52 1,59 -17,108 -20,54 31,18 49,29 36,22 2,114 -8,117 -35,13 -29,11 -70,20 -23,5 -67,42 -21,48 79,12 66,91 90,116l3 3c54,90 29,63 144,58 64,-3 133,-31 180,27 29,36 83,-4 134,-5 68,-2 93,9 142,-38 54,-52 81,-52 143,-74 55,-20 55,-89 74,-128 13,-27 29,-101 73,-69 23,16 80,26 109,7 43,-28 43,-49 103,-25 38,15 120,3 122,-48 4,-93 5,-54 75,-112 26,-21 36,-92 3,-125 -36,-36 -139,-55 -87,-122 4,-5 6,-7 12,-11 77,-62 126,-86 206,-135 19,-12 97,-57 83,-84 -31,-61 87,-70 126,-141 41,-76 -46,-103 -51,-131 30,-18 51,-37 41,-69 -13,-40 -21,-99 16,-124 71,-47 44,-5 84,-15 51,-13 35,-65 135,-40 40,10 99,-10 131,-36 48,-37 75,-44 117,-71 6,-4 54,-59 78,-77 40,-31 85,-55 121,-90 35,-34 78,-46 123,-32 68,21 125,-21 192,-25 25,-2 5,-10 35,3 27,34 68,116 117,56 47,-58 112,-31 152,-84 24,-31 -46,-74 48,-58 51,9 138,-9 200,0 45,6 243,-41 262,-24 1,1 20,28 32,40 32,32 50,66 91,97 49,36 101,131 108,192 8,71 16,95 13,171 -5,104 79,64 89,124 5,28 -61,18 -83,21 -39,4 -116,-18 -154,-33 -79,-30 -81,14 -171,5 -48,-5 -92,36 -62,81 34,52 23,68 36,90 28,47 61,-21 79,108 15,46 25,96 36,144 17,70 1,65 75,17 22,-14 34,-114 103,-26 19,24 -14,82 92,73 55,-5 21,-99 130,-50 35,15 46,10 67,39 34,47 54,-113 87,-11 14,43 72,48 108,12 70,-71 80,16 136,-53 46,-58 69,-29 127,-3 73,29 115,66 186,28 52,-27 122,-56 180,-68 54,-11 339,-157 384,-189 51,-35 128,-39 130,-102 2,-69 -19,-128 82,-122 168,9 140,-119 188,-112 66,10 64,85 113,33 19,-20 88,50 127,-1 14,-19 1,-63 22,-83 21,9 41,17 56,21 27,7 10,-6 39,13 19,13 -17,91 11,128 21,27 23,84 14,117 -3,10 -3,21 -2,31 121,9 131,11 235,-54 45,-28 62,-36 92,25 24,48 70,26 116,58 10,7 63,33 76,35 37,7 111,-3 152,17 82,42 66,45 132,-13 49,-43 57,31 140,0 81,-30 107,-28 190,-26 43,1 31,-28 107,-14 26,4 124,-7 83,-49 -25,-25 -18,-66 -28,-79 -6,-8 2,-148 46,-146 53,3 111,-101 156,-55 46,48 108,25 164,25 166,-7 139,-75 200,-76 40,-1 44,17 51,-41 7,-54 53,-15 73,-14 52,3 151,-14 83,-81 -29,-28 11,-47 34,-91 30,-59 43,-34 92,-9 38,20 4,27 89,49 45,12 101,15 144,33 78,33 203,-50 249,-11 39,33 122,2 126,86 3,70 27,39 14,127 -9,59 68,4 74,143 3,64 117,40 151,28 149,-52 121,14 263,-113 101,-90 221,-21 302,60 9,9 18,16 29,22 46,38 84,66 140,82 34,10 98,13 134,13 -33,-88 53,-48 103,-70 63,-27 46,36 112,25 55,-9 74,-57 115,-36 54,28 122,-80 131,-81 48,-8 13,-42 30,-68 23,-34 84,11 112,2 54,-18 32,-43 79,-60 15,-6 25,-11 30,-19 94,52 86,22 165,37 8,1 51,28 53,44 4,38 48,22 53,80 4,50 58,-16 70,51 9,53 143,35 147,178 2,61 78,53 78,120 0,66 -43,170 39,219 54,33 80,-52 138,-59 55,-7 57,-11 108,29 32,25 15,24 63,47 66,31 145,130 194,135 22,2 88,-22 116,-28l0 0z"/>
  <polygon class="fil3 str4" points="20615,18177 23290,18177 23290,19770 20615,19770 "/>
  <path class="fil4" d="M21470 18371l57 -28 6 0 0 197c0,13 1,21 2,25 1,3 3,6 7,7 3,2 11,3 21,3l0 6 -88 0 0 -6c11,0 18,-1 21,-3 3,-2 5,-4 7,-7 1,-3 2,-11 2,-25l0 -126c0,-17 -1,-28 -2,-33 -1,-4 -2,-6 -4,-8 -2,-2 -5,-3 -8,-3 -4,0 -10,2 -18,5l-3 -5z"/>
  <path id="1" class="fil4" d="M22105 18336l0 157 40 -37c9,-8 13,-13 15,-15 1,-1 1,-3 1,-4 0,-2 -1,-4 -3,-6 -2,-2 -5,-3 -9,-3l0 -6 69 0 0 6c-9,0 -17,2 -23,4 -6,3 -13,7 -21,14l-41 37 40 51c11,14 19,23 23,27 6,5 10,9 15,10 3,1 8,2 15,2l0 6 -77 0 0 -6c4,0 7,-1 9,-2 2,-1 2,-3 2,-5 0,-3 -2,-7 -7,-13l-48 -62 0 52c0,10 1,17 2,20 1,3 3,5 6,7 3,1 8,2 17,2l0 6 -80 0 0 -6c8,0 14,-1 18,-3 2,-1 4,-3 5,-6 2,-4 3,-10 3,-20l0 -144c0,-18 0,-29 -1,-33 -1,-4 -2,-7 -4,-8 -2,-2 -4,-2 -7,-2 -2,0 -6,1 -11,3l-3 -6 47 -19 8 0z"/>
  <path id="2" class="fil4" d="M22281 18453c11,-12 18,-18 20,-20 5,-4 11,-8 17,-10 6,-2 12,-4 18,-4 10,0 18,3 25,9 7,6 12,14 14,25 12,-14 22,-23 30,-27 8,-4 17,-6 25,-6 8,0 16,2 22,6 6,4 12,11 15,21 3,7 4,17 4,31l0 68c0,10 1,17 2,20 1,2 3,5 6,6 3,2 8,3 15,3l0 6 -77 0 0 -6 3 0c7,0 12,-1 16,-4 3,-2 5,-5 6,-9 0,-2 1,-7 1,-17l0 -68c0,-13 -2,-22 -5,-27 -5,-7 -12,-11 -22,-11 -6,0 -12,2 -18,5 -6,3 -14,9 -22,17l0 2 1 7 0 75c0,11 1,17 2,20 1,3 3,5 7,7 3,2 9,3 17,3l0 6 -79 0 0 -6c9,0 15,-1 18,-3 3,-2 5,-5 7,-9 1,-2 1,-8 1,-17l0 -68c0,-13 -2,-22 -6,-28 -5,-7 -12,-11 -21,-11 -6,0 -12,2 -18,5 -9,5 -17,11 -22,17l0 85c0,10 1,17 2,20 1,3 4,5 6,7 3,2 8,2 17,2l0 6 -78 0 0 -6c7,0 12,-1 15,-2 3,-2 5,-4 7,-7 1,-3 2,-10 2,-20l0 -60c0,-17 -1,-28 -2,-34 -1,-4 -2,-6 -4,-8 -2,-1 -4,-2 -7,-2 -3,0 -7,1 -12,3l-3 -6 48 -19 7 0 0 34z"/>
  <path id="3" class="fil4" d="M21618 18466c0,-27 4,-50 12,-69 8,-19 19,-34 32,-43 10,-7 21,-11 32,-11 18,0 34,9 48,27 18,23 27,53 27,92 0,27 -4,50 -12,69 -8,19 -18,33 -30,41 -12,9 -24,13 -35,13 -22,0 -41,-13 -56,-39 -13,-22 -19,-49 -19,-80zm34 4c0,32 4,58 12,79 7,17 16,26 29,26 6,0 13,-3 19,-8 7,-6 12,-15 15,-28 5,-20 8,-48 8,-83 0,-27 -3,-49 -8,-67 -4,-13 -9,-23 -16,-28 -5,-4 -10,-6 -17,-6 -8,0 -15,4 -21,11 -8,10 -14,24 -17,45 -3,20 -4,41 -4,60z"/>
  <path id="4" class="fil4" d="M21795 18466c0,-27 4,-50 12,-69 8,-19 19,-34 32,-43 10,-7 21,-11 32,-11 18,0 34,9 48,27 18,23 27,53 27,92 0,27 -4,50 -12,69 -8,19 -18,33 -30,41 -12,9 -24,13 -35,13 -22,0 -41,-13 -56,-39 -13,-22 -19,-49 -19,-80zm34 4c0,32 4,58 12,79 7,17 16,26 29,26 6,0 13,-3 19,-8 7,-6 12,-15 15,-28 5,-20 8,-48 8,-83 0,-27 -3,-49 -8,-67 -4,-13 -9,-23 -16,-28 -5,-4 -10,-6 -17,-6 -8,0 -15,4 -21,11 -8,10 -14,24 -17,45 -3,20 -4,41 -4,60z"/>
  <path class="fil4" d="M21668 19313l0 7c-15,1 -27,4 -37,9 -10,5 -19,11 -28,21 -9,9 -17,20 -23,31 -6,11 -11,25 -15,41 16,-11 33,-17 50,-17 16,0 30,6 41,19 12,13 18,29 18,50 0,19 -6,37 -18,53 -14,19 -33,29 -56,29 -16,0 -30,-5 -41,-16 -22,-21 -33,-47 -33,-80 0,-21 4,-41 13,-60 8,-19 20,-36 36,-50 16,-15 30,-24 45,-29 14,-5 27,-8 40,-8l10 0zm-107 120c-2,16 -3,28 -3,38 0,11 2,23 6,36 4,13 10,23 18,31 6,5 13,8 21,8 10,0 19,-5 27,-14 8,-9 12,-23 12,-40 0,-20 -4,-37 -12,-51 -8,-14 -19,-22 -33,-22 -4,0 -9,1 -14,3 -5,2 -12,6 -22,12z"/>
  <path id="1" class="fil4" d="M21699 19436c0,-27 4,-50 12,-69 8,-19 19,-34 32,-43 10,-7 21,-11 32,-11 18,0 34,9 48,27 18,23 27,53 27,92 0,27 -4,50 -12,69 -8,19 -18,33 -30,41 -12,9 -24,13 -35,13 -22,0 -41,-13 -56,-39 -13,-22 -19,-49 -19,-80zm34 4c0,32 4,58 12,79 7,17 16,26 29,26 6,0 13,-3 19,-8 7,-6 12,-15 15,-28 5,-20 8,-48 8,-83 0,-27 -3,-49 -8,-67 -4,-13 -9,-23 -16,-28 -5,-4 -10,-6 -17,-6 -8,0 -15,4 -21,11 -8,10 -14,24 -17,45 -3,20 -4,41 -4,60z"/>
  <path id="2" class="fil4" d="M22009 19423c11,-12 18,-18 20,-20 5,-4 11,-8 17,-10 6,-2 12,-4 18,-4 10,0 18,3 25,9 7,6 12,14 14,25 12,-14 22,-23 30,-27 8,-4 17,-6 25,-6 8,0 16,2 22,6 6,4 12,11 15,21 3,7 4,17 4,31l0 68c0,10 1,17 2,20 1,2 3,5 6,6 3,2 8,3 15,3l0 6 -77 0 0 -6 3 0c7,0 12,-1 16,-4 3,-2 5,-5 6,-9 0,-2 1,-7 1,-17l0 -68c0,-13 -2,-22 -5,-27 -5,-7 -12,-11 -22,-11 -6,0 -12,2 -18,5 -6,3 -14,9 -22,17l0 2 1 7 0 75c0,11 1,17 2,20 1,3 3,5 7,7 3,2 9,3 17,3l0 6 -79 0 0 -6c9,0 15,-1 18,-3 3,-2 5,-5 7,-9 1,-2 1,-8 1,-17l0 -68c0,-13 -2,-22 -6,-28 -5,-7 -12,-11 -21,-11 -6,0 -12,2 -18,5 -9,5 -17,11 -22,17l0 85c0,10 1,17 2,20 1,3 4,5 6,7 3,2 8,2 17,2l0 6 -78 0 0 -6c7,0 12,-1 15,-2 3,-2 5,-4 7,-7 1,-3 2,-10 2,-20l0 -60c0,-17 -1,-28 -2,-34 -1,-4 -2,-6 -4,-8 -2,-1 -4,-2 -7,-2 -3,0 -7,1 -12,3l-3 -6 48 -19 7 0 0 34z"/>
  <path id="3" class="fil4" d="M22277 19306c5,0 9,2 12,5 3,3 5,8 5,12 0,5 -2,9 -5,12 -3,3 -8,5 -12,5 -5,0 -9,-2 -12,-5 -3,-3 -5,-8 -5,-12 0,-5 2,-9 5,-12 3,-3 8,-5 13,-5zm14 83l0 127c0,10 1,16 2,20 1,3 4,6 6,7 3,2 8,2 15,2l0 6 -77 0 0 -6c8,0 13,-1 15,-2 3,-1 5,-4 6,-7 2,-3 2,-10 2,-20l0 -61c0,-17 -1,-28 -2,-33 -1,-4 -2,-6 -4,-8 -2,-1 -4,-2 -7,-2 -3,0 -7,1 -12,3l-2 -6 47 -19 8 0z"/>
  <path class="fil4" d="M23469 19677c0,-17 4,-34 13,-51 9,-17 22,-30 38,-39 17,-9 34,-14 52,-14 18,0 35,5 52,14 17,9 29,22 39,38 9,17 14,34 14,52 0,18 -5,35 -14,52 -9,17 -22,29 -39,39 -17,9 -34,14 -52,14 -18,0 -35,-5 -52,-14 -17,-9 -30,-22 -38,-39 -9,-17 -13,-34 -13,-51zm17 0c0,15 4,29 11,43 7,14 18,25 32,32 14,8 28,12 43,12 15,0 29,-4 43,-12 14,-8 24,-18 32,-32 8,-14 12,-28 12,-43 0,-15 -4,-29 -12,-43 -8,-14 -18,-25 -32,-32 -14,-8 -28,-11 -43,-11 -15,0 -30,4 -43,12 -14,8 -25,19 -32,32 -7,14 -11,28 -11,43zm104 -33l5 -17c12,3 21,9 28,18 7,9 10,20 10,33 0,16 -5,29 -16,39 -10,10 -25,15 -44,15 -12,0 -23,-2 -32,-7 -9,-5 -16,-11 -20,-20 -5,-9 -7,-18 -7,-29 0,-12 3,-22 9,-30 6,-8 14,-14 24,-17l4 16c-7,3 -12,7 -16,12 -4,5 -6,12 -6,19 0,11 4,19 11,26 8,7 18,10 32,10 14,0 25,-3 32,-10 7,-6 11,-15 11,-25 0,-8 -2,-16 -7,-22 -5,-6 -11,-10 -20,-12z"/>
  <path id="1" class="fil4" d="M23675 19382l-19 0c14,9 22,23 22,41 0,12 -3,22 -10,32 -6,10 -15,17 -27,23 -12,5 -25,8 -40,8 -15,0 -28,-2 -40,-7 -12,-5 -21,-12 -27,-22 -6,-10 -10,-21 -10,-33 0,-9 2,-17 6,-24 4,-7 9,-12 15,-17l-73 0 0 -25 202 0 0 23zm-73 78c19,0 33,-4 42,-12 9,-8 14,-17 14,-28 0,-11 -4,-20 -13,-28 -9,-8 -22,-11 -41,-11 -20,0 -35,4 -44,12 -9,8 -14,17 -14,29 0,11 4,20 13,28 9,7 23,11 42,11z"/>
  <polygon id="2" class="fil4" points="23614,19329 23589,19329 23589,19252 23614,19252 "/>
  <path id="3" class="fil4" d="M23675 19225l-146 0 0 -22 21 0c-7,-5 -13,-11 -17,-18 -4,-8 -7,-16 -7,-26 0,-11 2,-20 7,-27 5,-7 11,-12 19,-15 -17,-12 -26,-27 -26,-45 0,-15 4,-26 12,-34 8,-8 20,-12 37,-12l100 0 0 25 -92 0c-10,0 -17,1 -21,2 -4,2 -8,5 -11,9 -3,4 -4,9 -4,15 0,10 3,19 10,26 7,7 18,10 33,10l85 0 0 25 -95 0c-11,0 -19,2 -25,6 -6,4 -8,11 -8,20 0,7 2,13 6,19 4,6 9,10 16,13 7,3 17,4 31,4l76 0 0 25z"/>
  <path id="4" class="fil4" d="M23656 18894c8,9 13,18 17,27 3,9 5,18 5,27 0,16 -4,28 -12,37 -8,9 -18,13 -30,13 -7,0 -14,-2 -20,-5 -6,-3 -11,-8 -14,-13 -4,-5 -6,-11 -8,-18 -1,-5 -2,-12 -4,-22 -2,-20 -5,-35 -9,-44 -3,0 -6,0 -6,0 -10,0 -17,2 -21,7 -6,6 -8,16 -8,28 0,12 2,20 6,26 4,6 11,10 22,12l-3 24c-10,-2 -19,-6 -25,-11 -6,-5 -11,-12 -15,-22 -3,-10 -5,-21 -5,-33 0,-13 1,-23 4,-31 3,-8 7,-14 11,-17 4,-4 10,-6 17,-8 4,-1 12,-1 23,-1l33 0c23,0 38,-1 44,-2 6,-1 12,-3 18,-6l0 26c-5,3 -11,4 -18,5zm-55 2c4,9 7,23 9,41 1,10 3,17 5,22 2,4 5,7 8,10 4,2 7,3 12,3 7,0 12,-2 16,-8 4,-5 7,-12 7,-22 0,-10 -2,-18 -6,-26 -4,-7 -10,-13 -17,-16 -6,-3 -14,-4 -25,-4l-9 0z"/>
  <path id="5" class="fil4" d="M23731 18833l-203 0 0 -23 19 0c-7,-5 -13,-11 -17,-18 -4,-7 -6,-15 -6,-24 0,-13 3,-24 10,-33 6,-10 15,-17 27,-22 12,-5 25,-7 38,-7 15,0 28,3 40,8 12,5 21,13 28,23 6,10 10,21 10,32 0,8 -2,16 -5,22 -3,7 -8,12 -13,16l71 0 0 25zm-129 -23c19,0 33,-4 42,-11 9,-8 13,-17 13,-28 0,-11 -5,-20 -14,-28 -9,-8 -24,-12 -43,-12 -19,0 -33,4 -42,11 -9,8 -14,17 -14,27 0,11 5,20 15,28 10,8 24,12 43,12z"/>
  <path id="6" class="fil4" d="M23631 18686l-4 -25c10,-1 17,-5 23,-12 5,-6 8,-15 8,-26 0,-11 -2,-20 -7,-25 -5,-6 -10,-8 -16,-8 -6,0 -10,3 -13,7 -2,3 -5,12 -8,25 -5,18 -9,31 -12,38 -3,7 -8,12 -14,16 -6,4 -12,5 -20,5 -7,0 -13,-2 -18,-4 -6,-3 -10,-7 -14,-12 -3,-4 -5,-9 -7,-16 -2,-7 -3,-14 -3,-21 0,-11 2,-22 5,-30 3,-9 8,-15 13,-19 6,-4 13,-7 23,-9l3 24c-8,1 -14,4 -18,10 -4,5 -6,13 -6,22 0,11 2,19 6,24 4,5 8,7 13,7 3,0 6,-1 9,-3 3,-2 5,-5 7,-10 1,-3 3,-10 6,-22 5,-18 9,-30 11,-37 3,-7 7,-12 13,-16 6,-4 13,-6 21,-6 8,0 16,2 23,7 7,5 13,12 17,21 4,9 6,19 6,31 0,19 -4,34 -12,44 -8,10 -20,16 -35,19z"/>
  <polygon id="7" class="fil4" points="23675,18528 23646,18528 23646,18500 23675,18500 "/>
  <path id="8" class="fil4" d="M23621 18361l3 -24c17,3 30,9 39,20 9,11 14,24 14,40 0,20 -7,36 -20,48 -13,12 -32,18 -56,18 -16,0 -30,-3 -41,-8 -12,-5 -21,-13 -27,-24 -6,-11 -9,-22 -9,-35 0,-16 4,-29 12,-39 8,-10 19,-17 34,-19l4 24c-10,2 -17,6 -22,12 -5,6 -7,13 -7,21 0,13 4,23 13,31 9,8 23,12 42,12 20,0 34,-4 43,-11 9,-8 13,-17 13,-29 0,-10 -3,-18 -9,-24 -6,-7 -15,-11 -27,-12z"/>
  <path id="9" class="fil4" d="M23601 18325c-27,0 -47,-8 -60,-23 -11,-13 -16,-28 -16,-46 0,-20 7,-37 20,-49 13,-13 31,-19 55,-19 19,0 34,3 44,8 11,6 19,14 25,25 6,11 9,23 9,35 0,21 -7,37 -20,50 -13,13 -32,19 -57,19zm0 -25c19,0 33,-4 42,-12 9,-8 14,-19 14,-31 0,-12 -5,-23 -14,-31 -9,-8 -24,-12 -43,-12 -18,0 -32,4 -41,12 -9,8 -14,18 -14,31 0,12 5,23 14,31 9,8 23,12 42,12z"/>
  <path id="10" class="fil4" d="M23675 18159l-146 0 0 -22 21 0c-7,-5 -13,-11 -17,-18 -4,-8 -7,-16 -7,-26 0,-11 2,-20 7,-27 5,-7 11,-12 19,-15 -17,-12 -26,-27 -26,-45 0,-15 4,-26 12,-34 8,-8 20,-12 37,-12l100 0 0 25 -92 0c-10,0 -17,1 -21,2 -4,2 -8,5 -11,9 -3,4 -4,9 -4,15 0,10 3,19 10,26 7,7 18,10 33,10l85 0 0 25 -95 0c-11,0 -19,2 -25,6 -6,4 -8,11 -8,20 0,7 2,13 6,19 4,6 9,10 16,13 7,3 17,4 31,4l76 0 0 25z"/>
  <g>
   <polygon class="fil5 str5" points="20744,18778 21229,18778 21229,18877 20744,18877 "/>
   <polygon class="fil6 str5" points="21229,18778 21715,18778 21715,18877 21229,18877 "/>
   <polygon class="fil5 str5" points="21715,18778 22200,18778 22200,18877 21715,18877 "/>
   <polygon class="fil6 str5" points="22201,18778 22686,18778 22686,18877 22201,18877 "/>
   <polygon class="fil5 str5" points="22686,18778 23172,18778 23172,18877 22686,18877 "/>
   <polygon class="fil6 str5" points="22299,19077 23075,19077 23075,19176 22299,19176 "/>
   <polygon class="fil5 str5" points="21522,19077 22299,19077 22299,19176 21522,19176 "/>
   <polygon class="fil6 str5" points="20746,19077 21522,19077 21522,19176 20746,19176 "/>
  </g>
  <rect class="fil2 str3" x="1000" y="1000" width="22886" height="19000"/>
  <g>
   <polygon class="fil3 str4" points="19666,18173 20482,18173 20482,19766 19666,19766 "/>
   <path class="fil7" d="M20015 18609c-1,3 -2,6 -2,9 0,3 -1,5 -1,7 0,6 2,10 5,12 3,2 10,3 18,3l4 0 -5 23 -78 0 5 -23 3 0c7,0 13,-2 16,-5 4,-3 6,-8 8,-16l38 -154c1,-3 1,-6 2,-8 0,-3 1,-6 1,-9 0,-5 -2,-9 -6,-11 -4,-2 -11,-3 -20,-3l-3 0 5 -23 72 0 62 184 31 -129c1,-4 2,-8 2,-10 0,-3 1,-5 1,-6 0,-6 -2,-10 -5,-12 -4,-2 -10,-3 -18,-3l-4 0 5 -23 79 0 -6 23 -3 0c-7,0 -13,2 -16,5 -4,3 -6,8 -8,16l-51 208 -22 0 -72 -209 -37 155z"/>
   <line class="fil2 str6" x1="20075" y1="19633" x2="20075" y2= "18864" />
   <line class="fil2 str6" x1="19793" y1="19357" x2="20356" y2= "19357" />
   <line class="fil2 str6" x1="19930" y1="19497" x2="20225" y2= "19210" />
   <line class="fil2 str6" x1="19927" y1="19210" x2="20225" y2= "19499" />
   <line class="fil2 str6" x1="20075" y1="18866" x2="19980" y2= "18984" />
   <line class="fil2 str6" x1="20076" y1="18866" x2="20164" y2= "18984" />
  </g>
  <g>
   <polygon class="fil3 str4" points="23656,1230 23656,1704 21346,1704 21346,1230 "/>
   <path class="fil7" d="M22424 1569l0 -202 40 0 48 143c4,13 8,23 10,30 2,-7 6,-18 11,-32l49 -141 36 0 0 202 -26 0 0 -169 -59 169 -24 0 -58 -172 0 172 -26 0z"/>
   <path id="1" class="fil7" d="M22756 1522l26 3c-4,15 -11,27 -22,35 -11,8 -25,12 -42,12 -21,0 -38,-7 -51,-20 -13,-13 -19,-32 -19,-55 0,-25 6,-44 19,-57 13,-14 29,-20 49,-20 20,0 35,7 48,20 12,13 19,32 19,56 0,1 0,4 0,7l-109 0c1,16 5,28 14,37 8,9 18,13 31,13 9,0 17,-2 23,-7 6,-5 12,-12 15,-23zm-81 -40l82 0c-1,-12 -4,-22 -9,-28 -8,-10 -18,-14 -31,-14 -11,0 -21,4 -29,11 -8,8 -12,18 -13,31z"/>
   <path id="2" class="fil7" d="M22813 1569l0 -146 22 0 0 22c6,-10 11,-17 16,-21 5,-3 10,-5 16,-5 8,0 17,3 26,8l-9 23c-6,-3 -12,-5 -18,-5 -5,0 -10,2 -15,5 -4,3 -7,8 -9,14 -3,9 -4,18 -4,29l0 77 -25 0z"/>
   <path id="3" class="fil7" d="M23003 1515l24 3c-3,17 -9,30 -20,39 -11,9 -24,14 -40,14 -20,0 -36,-7 -48,-20 -12,-13 -18,-32 -18,-56 0,-16 3,-30 8,-41 5,-12 13,-21 24,-27 11,-6 22,-9 35,-9 16,0 29,4 39,12 10,8 17,19 19,34l-24 4c-2,-10 -6,-17 -12,-22 -6,-5 -13,-7 -21,-7 -13,0 -23,4 -31,13 -8,9 -12,23 -12,42 0,20 4,34 11,43 8,9 17,13 29,13 10,0 18,-3 24,-9 7,-6 11,-15 12,-27z"/>
   <path id="4" class="fil7" d="M23144 1551c-9,8 -18,13 -27,17 -9,3 -18,5 -27,5 -16,0 -28,-4 -37,-12 -9,-8 -13,-18 -13,-30 0,-7 2,-14 5,-20 3,-6 8,-11 13,-14 5,-4 11,-6 18,-8 5,-1 12,-2 22,-4 20,-2 35,-5 44,-9 0,-3 0,-6 0,-6 0,-10 -2,-17 -7,-21 -6,-6 -16,-8 -28,-8 -12,0 -20,2 -26,6 -6,4 -10,11 -12,22l-24 -3c2,-10 6,-19 11,-25 5,-6 12,-11 22,-15 10,-3 21,-5 33,-5 13,0 23,1 31,4 8,3 14,7 17,11 4,4 6,10 8,17 1,4 1,12 1,23l0 33c0,23 1,38 2,44 1,6 3,12 6,18l-26 0c-3,-5 -4,-11 -5,-18zm-2 -55c-9,4 -23,7 -41,9 -10,1 -17,3 -22,5 -4,2 -7,5 -10,8 -2,4 -3,7 -3,12 0,7 2,12 8,16 5,4 12,7 22,7 10,0 18,-2 26,-6 7,-4 13,-10 16,-17 3,-6 4,-14 4,-25l0 -9z"/>
   <path id="5" class="fil7" d="M23259 1547l3 22c-7,1 -13,2 -19,2 -9,0 -16,-1 -21,-4 -5,-3 -8,-7 -10,-11 -2,-5 -3,-14 -3,-29l0 -84 -18 0 0 -19 18 0 0 -36 25 -15 0 51 25 0 0 19 -25 0 0 86c0,7 0,12 1,14 1,2 2,4 4,5 2,1 5,2 8,2 3,0 6,0 11,-1z"/>
   <path id="6" class="fil7" d="M23274 1496c0,-27 8,-47 23,-60 13,-11 28,-16 46,-16 20,0 37,7 49,20 13,13 19,31 19,55 0,19 -3,34 -8,44 -6,11 -14,19 -25,25 -11,6 -23,9 -35,9 -21,0 -37,-7 -50,-20 -13,-13 -19,-32 -19,-57zm25 0c0,19 4,33 12,42 8,9 19,14 31,14 12,0 23,-5 31,-14 8,-9 12,-24 12,-43 0,-18 -4,-32 -12,-41 -8,-9 -18,-14 -31,-14 -12,0 -23,5 -31,14 -8,9 -12,23 -12,42z"/>
   <path id="7" class="fil7" d="M23440 1569l0 -146 22 0 0 22c6,-10 11,-17 16,-21 5,-3 10,-5 16,-5 8,0 17,3 26,8l-9 23c-6,-3 -12,-5 -18,-5 -5,0 -10,2 -15,5 -4,3 -7,8 -9,14 -3,9 -4,18 -4,29l0 77 -25 0z"/>
   <circle class="fil8 str7" cx="21565" cy="1464" r="119"/>
   <rect class="fil8 str7" x="22023" y="1355" width="227" height="227"/>
   <line class="fil2 str8" x1="21739" y1="1463" x2="21959" y2= "1463" />
   <line class="fil2 str8" x1="21956" y1="1463" x2="21892" y2= "1529" />
   <line class="fil2 str8" x1="21956" y1="1462" x2="21893" y2= "1401" />
  </g>
 </g>
</svg>
